<svg width="76" height="25" viewBox="0 0 76 25" fill="none"
    xmlns="http://www.w3.org/2000/svg">
    <path d="M0.75 18.5C0.75 20.1567 2.09325 21.5 3.75 21.5H20.25C21.9067 21.5 23.25 20.1567 23.25 18.5V11.75H0.75V18.5Z" fill="#BE2A2C"/>
    <path d="M20.25 3.5H3.75C2.09325 3.5 0.75 4.84325 0.75 6.5V12.5H23.25V6.5C23.25 4.84325 21.9067 3.5 20.25 3.5Z" fill="#1334A3"/>
    <path d="M1.737 20.7101L12 12.4998L1.737 4.28955C1.13475 4.83855 0.75 5.62155 0.75 6.4998V18.4998C0.75 19.3788 1.13475 20.1618 1.737 20.7101Z" fill="white"/>
    <path opacity="0.15" d="M20.25 3.5H3.75C2.09325 3.5 0.75 4.84325 0.75 6.5V18.5C0.75 20.1567 2.09325 21.5 3.75 21.5H20.25C21.9067 21.5 23.25 20.1567 23.25 18.5V6.5C23.25 4.84325 21.9067 3.5 20.25 3.5ZM22.5 18.5C22.5 19.7405 21.4905 20.75 20.25 20.75H3.75C2.5095 20.75 1.5 19.7405 1.5 18.5V6.5C1.5 5.2595 2.5095 4.25 3.75 4.25H20.25C21.4905 4.25 22.5 5.2595 22.5 6.5V18.5Z" fill="black"/>
    <path opacity="0.2" d="M20.25 4.25H3.75C2.50725 4.25 1.5 5.25725 1.5 6.5V7.25C1.5 6.00725 2.50725 5 3.75 5H20.25C21.4928 5 22.5 6.00725 22.5 7.25V6.5C22.5 5.25725 21.4928 4.25 20.25 4.25Z" fill="white"/>
    <path d="M7.92698 11.9774L6.75623 12.2099C6.71798 12.0149 6.64073 11.8334 6.53423 11.6736L7.52648 11.0106L7.51823 10.2794L6.78698 10.2711L6.12398 11.2634C5.96423 11.1561 5.78273 11.0796 5.58773 11.0414L5.82023 9.87061L5.29748 9.35986L4.77473 9.87061L5.00723 11.0414C4.81223 11.0796 4.63073 11.1569 4.47098 11.2634L3.80798 10.2711L3.07673 10.2794L3.06848 11.0106L4.06073 11.6736C3.95348 11.8334 3.87698 12.0149 3.83873 12.2099L2.66798 11.9774L2.15723 12.5001L2.66798 13.0229L3.83873 12.7904C3.87698 12.9854 3.95423 13.1669 4.06073 13.3266L3.06848 13.9896L3.07673 14.7209L3.80798 14.7291L4.47098 13.7369C4.63073 13.8441 4.81223 13.9206 5.00723 13.9589L4.77473 15.1296L5.29748 15.6404L5.82023 15.1296L5.58773 13.9589C5.78273 13.9206 5.96423 13.8434 6.12398 13.7369L6.78698 14.7291L7.51823 14.7209L7.52648 13.9896L6.53423 13.3266C6.64148 13.1669 6.71798 12.9854 6.75623 12.7904L7.92698 13.0229L8.43773 12.5001L7.92698 11.9774Z" fill="#F4D24B"/>
    <path d="M43 13.5H37V11.5H43V5.5H45V11.5H51V13.5H45V19.5H43V13.5Z" fill="#4F5051"/>
    <path d="M63.44 9.184C63.2053 8 62.4747 7.408 61.248 7.408C60.2987 7.408 59.5893 7.776 59.12 8.512C58.6507 9.23733 58.4213 10.4373 58.432 12.112C58.6773 11.5573 59.0827 11.1253 59.648 10.816C60.224 10.496 60.864 10.336 61.568 10.336C62.6667 10.336 63.5413 10.6773 64.192 11.36C64.8533 12.0427 65.184 12.9867 65.184 14.192C65.184 14.9173 65.04 15.568 64.752 16.144C64.4747 16.72 64.048 17.1787 63.472 17.52C62.9067 17.8613 62.2187 18.032 61.408 18.032C60.3093 18.032 59.4507 17.7867 58.832 17.296C58.2133 16.8053 57.7813 16.128 57.536 15.264C57.2907 14.4 57.168 13.3333 57.168 12.064C57.168 8.14933 58.5333 6.192 61.264 6.192C62.3093 6.192 63.1307 6.47467 63.728 7.04C64.3253 7.60533 64.6773 8.32 64.784 9.184H63.44ZM61.264 11.568C60.8053 11.568 60.3733 11.664 59.968 11.856C59.5627 12.0373 59.232 12.32 58.976 12.704C58.7307 13.0773 58.608 13.536 58.608 14.08C58.608 14.8907 58.8427 15.552 59.312 16.064C59.7813 16.5653 60.4533 16.816 61.328 16.816C62.0747 16.816 62.6667 16.5867 63.104 16.128C63.552 15.6587 63.776 15.0293 63.776 14.24C63.776 13.408 63.5627 12.7573 63.136 12.288C62.7093 11.808 62.0853 11.568 61.264 11.568ZM67.1163 9.344C67.1909 8.36267 67.5696 7.59467 68.2523 7.04C68.9349 6.48533 69.8203 6.208 70.9083 6.208C71.6336 6.208 72.2576 6.34133 72.7803 6.608C73.3136 6.864 73.7136 7.216 73.9803 7.664C74.2576 8.112 74.3963 8.61867 74.3963 9.184C74.3963 9.84533 74.2043 10.416 73.8203 10.896C73.4469 11.376 72.9563 11.6853 72.3483 11.824V11.904C73.0416 12.0747 73.5909 12.4107 73.9963 12.912C74.4016 13.4133 74.6042 14.0693 74.6042 14.88C74.6042 15.488 74.4656 16.0373 74.1883 16.528C73.9109 17.008 73.4949 17.3867 72.9403 17.664C72.3856 17.9413 71.7189 18.08 70.9403 18.08C69.8096 18.08 68.8816 17.7867 68.1562 17.2C67.4309 16.6027 67.0256 15.76 66.9403 14.672H68.3483C68.4229 15.312 68.6843 15.8347 69.1323 16.24C69.5803 16.6453 70.1776 16.848 70.9243 16.848C71.6709 16.848 72.2363 16.656 72.6203 16.272C73.0149 15.8773 73.2123 15.3707 73.2123 14.752C73.2123 13.952 72.9456 13.376 72.4123 13.024C71.8789 12.672 71.0736 12.496 69.9963 12.496H69.6283V11.28H70.0123C70.9936 11.2693 71.7349 11.1093 72.2363 10.8C72.7376 10.48 72.9883 9.98933 72.9883 9.328C72.9883 8.76267 72.8016 8.30933 72.4283 7.968C72.0656 7.62667 71.5429 7.456 70.8602 7.456C70.1989 7.456 69.6656 7.62667 69.2603 7.968C68.8549 8.30933 68.6149 8.768 68.5403 9.344H67.1163Z" fill="black"/>
</svg>
