<svg width="499" height="290" viewBox="0 0 499 290" fill="none"
    xmlns="http://www.w3.org/2000/svg">
    <g clip-path="url(#clip0_430_4742)">
        <rect width="498.011" height="289.887" fill="white" />
        <path d="M2.256 30.6043V35.9203C2.256 36.5523 2.42 37.0283 2.748 37.3483C3.084 37.6683 3.548 37.8283 4.14 37.8283C4.74 37.8283 5.204 37.6683 5.532 37.3483C5.868 37.0283 6.036 36.5523 6.036 35.9203V30.6043H7.404V35.8963C7.404 36.5763 7.256 37.1523 6.96 37.6243C6.664 38.0963 6.268 38.4483 5.772 38.6803C5.276 38.9123 4.728 39.0283 4.128 39.0283C3.528 39.0283 2.98 38.9123 2.484 38.6803C1.996 38.4483 1.608 38.0963 1.32 37.6243C1.032 37.1523 0.888 36.5763 0.888 35.8963V30.6043H2.256ZM10.5532 33.3163C10.7852 32.9963 11.1012 32.7363 11.5012 32.5363C11.9092 32.3283 12.3612 32.2243 12.8572 32.2243C13.4412 32.2243 13.9692 32.3643 14.4412 32.6443C14.9132 32.9243 15.2852 33.3243 15.5572 33.8443C15.8292 34.3563 15.9652 34.9443 15.9652 35.6083C15.9652 36.2723 15.8292 36.8683 15.5572 37.3963C15.2852 37.9163 14.9092 38.3243 14.4292 38.6203C13.9572 38.9083 13.4332 39.0523 12.8572 39.0523C12.3452 39.0523 11.8892 38.9523 11.4892 38.7523C11.0972 38.5523 10.7852 38.2963 10.5532 37.9843V38.9443H9.18516V30.0643H10.5532V33.3163ZM14.5732 35.6083C14.5732 35.1523 14.4772 34.7603 14.2852 34.4323C14.1012 34.0963 13.8532 33.8443 13.5412 33.6763C13.2372 33.5003 12.9092 33.4123 12.5572 33.4123C12.2132 33.4123 11.8852 33.5003 11.5732 33.6763C11.2692 33.8523 11.0212 34.1083 10.8292 34.4443C10.6452 34.7803 10.5532 35.1763 10.5532 35.6323C10.5532 36.0883 10.6452 36.4883 10.8292 36.8323C11.0212 37.1683 11.2692 37.4243 11.5732 37.6003C11.8852 37.7763 12.2132 37.8643 12.5572 37.8643C12.9092 37.8643 13.2372 37.7763 13.5412 37.6003C13.8532 37.4163 14.1012 37.1523 14.2852 36.8083C14.4772 36.4643 14.5732 36.0643 14.5732 35.6083ZM16.862 35.6083C16.862 34.9443 16.998 34.3563 17.27 33.8443C17.55 33.3323 17.926 32.9363 18.398 32.6563C18.878 32.3683 19.406 32.2243 19.982 32.2243C20.502 32.2243 20.954 32.3283 21.338 32.5363C21.73 32.7363 22.042 32.9883 22.274 33.2923V32.3323H23.654V38.9443H22.274V37.9603C22.042 38.2723 21.726 38.5323 21.326 38.7403C20.926 38.9483 20.47 39.0523 19.958 39.0523C19.39 39.0523 18.87 38.9083 18.398 38.6203C17.926 38.3243 17.55 37.9163 17.27 37.3963C16.998 36.8683 16.862 36.2723 16.862 35.6083ZM22.274 35.6323C22.274 35.1763 22.178 34.7803 21.986 34.4443C21.802 34.1083 21.558 33.8523 21.254 33.6763C20.95 33.5003 20.622 33.4123 20.27 33.4123C19.918 33.4123 19.59 33.5003 19.286 33.6763C18.982 33.8443 18.734 34.0963 18.542 34.4323C18.358 34.7603 18.266 35.1523 18.266 35.6083C18.266 36.0643 18.358 36.4643 18.542 36.8083C18.734 37.1523 18.982 37.4163 19.286 37.6003C19.598 37.7763 19.926 37.8643 20.27 37.8643C20.622 37.8643 20.95 37.7763 21.254 37.6003C21.558 37.4243 21.802 37.1683 21.986 36.8323C22.178 36.4883 22.274 36.0883 22.274 35.6323ZM26.8188 30.0643V38.9443H25.4508V30.0643H26.8188ZM28.1588 35.6083C28.1588 34.9443 28.2948 34.3563 28.5668 33.8443C28.8468 33.3323 29.2228 32.9363 29.6948 32.6563C30.1748 32.3683 30.7068 32.2243 31.2908 32.2243C31.7228 32.2243 32.1468 32.3203 32.5628 32.5123C32.9868 32.6963 33.3228 32.9443 33.5708 33.2563V30.0643H34.9508V38.9443H33.5708V37.9483C33.3468 38.2683 33.0348 38.5323 32.6348 38.7403C32.2428 38.9483 31.7908 39.0523 31.2788 39.0523C30.7028 39.0523 30.1748 38.9083 29.6948 38.6203C29.2228 38.3243 28.8468 37.9163 28.5668 37.3963C28.2948 36.8683 28.1588 36.2723 28.1588 35.6083ZM33.5708 35.6323C33.5708 35.1763 33.4748 34.7803 33.2828 34.4443C33.0988 34.1083 32.8548 33.8523 32.5508 33.6763C32.2468 33.5003 31.9188 33.4123 31.5668 33.4123C31.2148 33.4123 30.8868 33.5003 30.5828 33.6763C30.2788 33.8443 30.0308 34.0963 29.8388 34.4323C29.6548 34.7603 29.5628 35.1523 29.5628 35.6083C29.5628 36.0643 29.6548 36.4643 29.8388 36.8083C30.0308 37.1523 30.2788 37.4163 30.5828 37.6003C30.8948 37.7763 31.2228 37.8643 31.5668 37.8643C31.9188 37.8643 32.2468 37.7763 32.5508 37.6003C32.8548 37.4243 33.0988 37.1683 33.2828 36.8323C33.4748 36.4883 33.5708 36.0883 33.5708 35.6323ZM42.8077 35.4763C42.8077 35.7243 42.7917 35.9483 42.7597 36.1483H37.7077C37.7477 36.6763 37.9437 37.1003 38.2957 37.4203C38.6477 37.7403 39.0797 37.9003 39.5917 37.9003C40.3277 37.9003 40.8477 37.5923 41.1517 36.9763H42.6277C42.4277 37.5843 42.0637 38.0843 41.5357 38.4763C41.0157 38.8603 40.3677 39.0523 39.5917 39.0523C38.9597 39.0523 38.3917 38.9123 37.8877 38.6323C37.3917 38.3443 36.9997 37.9443 36.7117 37.4323C36.4317 36.9123 36.2917 36.3123 36.2917 35.6323C36.2917 34.9523 36.4277 34.3563 36.6997 33.8443C36.9797 33.3243 37.3677 32.9243 37.8637 32.6443C38.3677 32.3643 38.9437 32.2243 39.5917 32.2243C40.2157 32.2243 40.7717 32.3603 41.2597 32.6323C41.7477 32.9043 42.1277 33.2883 42.3997 33.7843C42.6717 34.2723 42.8077 34.8363 42.8077 35.4763ZM41.3797 35.0443C41.3717 34.5403 41.1917 34.1363 40.8397 33.8323C40.4877 33.5283 40.0517 33.3763 39.5317 33.3763C39.0597 33.3763 38.6557 33.5283 38.3197 33.8323C37.9837 34.1283 37.7837 34.5323 37.7197 35.0443H41.3797Z" fill="#1B6EC2" />
        <path d="M5.136 74.5803V80.7603C5.136 81.4483 4.924 82.0003 4.5 82.4163C4.076 82.8243 3.516 83.0283 2.82 83.0283C2.116 83.0283 1.552 82.8203 1.128 82.4043C0.704 81.9803 0.492 81.4043 0.492 80.6763H1.584C1.592 81.0843 1.696 81.4163 1.896 81.6723C2.104 81.9283 2.412 82.0563 2.82 82.0563C3.228 82.0563 3.532 81.9363 3.732 81.6963C3.932 81.4483 4.032 81.1363 4.032 80.7603V74.5803H5.136ZM13.2873 79.4043C13.2873 79.6123 13.2753 79.8323 13.2513 80.0643H7.99528C8.03528 80.7123 8.25528 81.2203 8.65528 81.5883C9.06328 81.9483 9.55528 82.1283 10.1313 82.1283C10.6033 82.1283 10.9953 82.0203 11.3073 81.8043C11.6273 81.5803 11.8513 81.2843 11.9793 80.9163H13.1553C12.9793 81.5483 12.6273 82.0643 12.0993 82.4643C11.5713 82.8563 10.9153 83.0523 10.1313 83.0523C9.50728 83.0523 8.94728 82.9123 8.45128 82.6323C7.96328 82.3523 7.57928 81.9563 7.29928 81.4443C7.01928 80.9243 6.87928 80.3243 6.87928 79.6443C6.87928 78.9643 7.01528 78.3683 7.28728 77.8563C7.55928 77.3443 7.93928 76.9523 8.42728 76.6803C8.92328 76.4003 9.49128 76.2603 10.1313 76.2603C10.7553 76.2603 11.3073 76.3963 11.7873 76.6683C12.2673 76.9403 12.6353 77.3163 12.8913 77.7963C13.1553 78.2683 13.2873 78.8043 13.2873 79.4043ZM12.1593 79.1763C12.1593 78.7603 12.0673 78.4043 11.8833 78.1083C11.6993 77.8043 11.4473 77.5763 11.1273 77.4243C10.8153 77.2643 10.4673 77.1843 10.0833 77.1843C9.53128 77.1843 9.05928 77.3603 8.66728 77.7123C8.28328 78.0643 8.06328 78.5523 8.00728 79.1763H12.1593ZM15.8207 77.4363C16.0127 77.0603 16.2847 76.7683 16.6367 76.5603C16.9967 76.3523 17.4327 76.2483 17.9447 76.2483V77.3763H17.6567C16.4327 77.3763 15.8207 78.0403 15.8207 79.3683V82.9443H14.7287V76.3683H15.8207V77.4363ZM22.0733 83.0523C21.4573 83.0523 20.8973 82.9123 20.3933 82.6323C19.8973 82.3523 19.5053 81.9563 19.2173 81.4443C18.9373 80.9243 18.7973 80.3243 18.7973 79.6443C18.7973 78.9723 18.9413 78.3803 19.2293 77.8683C19.5253 77.3483 19.9253 76.9523 20.4293 76.6803C20.9333 76.4003 21.4973 76.2603 22.1213 76.2603C22.7453 76.2603 23.3093 76.4003 23.8133 76.6803C24.3173 76.9523 24.7133 77.3443 25.0013 77.8563C25.2973 78.3683 25.4453 78.9643 25.4453 79.6443C25.4453 80.3243 25.2933 80.9243 24.9893 81.4443C24.6933 81.9563 24.2893 82.3523 23.7773 82.6323C23.2653 82.9123 22.6973 83.0523 22.0733 83.0523ZM22.0733 82.0923C22.4653 82.0923 22.8333 82.0003 23.1773 81.8163C23.5213 81.6323 23.7973 81.3563 24.0053 80.9883C24.2213 80.6203 24.3293 80.1723 24.3293 79.6443C24.3293 79.1163 24.2253 78.6683 24.0173 78.3003C23.8093 77.9323 23.5373 77.6603 23.2013 77.4843C22.8653 77.3003 22.5013 77.2083 22.1093 77.2083C21.7093 77.2083 21.3413 77.3003 21.0053 77.4843C20.6773 77.6603 20.4133 77.9323 20.2133 78.3003C20.0133 78.6683 19.9133 79.1163 19.9133 79.6443C19.9133 80.1803 20.0093 80.6323 20.2013 81.0003C20.4013 81.3683 20.6653 81.6443 20.9933 81.8283C21.3213 82.0043 21.6813 82.0923 22.0733 82.0923ZM34.789 76.2483C35.301 76.2483 35.757 76.3563 36.157 76.5723C36.557 76.7803 36.873 77.0963 37.105 77.5203C37.337 77.9443 37.453 78.4603 37.453 79.0683V82.9443H36.373V79.2243C36.373 78.5683 36.209 78.0683 35.881 77.7243C35.561 77.3723 35.125 77.1963 34.573 77.1963C34.005 77.1963 33.553 77.3803 33.217 77.7483C32.881 78.1083 32.713 78.6323 32.713 79.3203V82.9443H31.633V79.2243C31.633 78.5683 31.469 78.0683 31.141 77.7243C30.821 77.3723 30.385 77.1963 29.833 77.1963C29.265 77.1963 28.813 77.3803 28.477 77.7483C28.141 78.1083 27.973 78.6323 27.973 79.3203V82.9443H26.881V76.3683H27.973V77.3163C28.189 76.9723 28.477 76.7083 28.837 76.5243C29.205 76.3403 29.609 76.2483 30.049 76.2483C30.601 76.2483 31.089 76.3723 31.513 76.6203C31.937 76.8683 32.253 77.2323 32.461 77.7123C32.645 77.2483 32.949 76.8883 33.373 76.6323C33.797 76.3763 34.269 76.2483 34.789 76.2483ZM45.2443 79.4043C45.2443 79.6123 45.2323 79.8323 45.2083 80.0643H39.9523C39.9923 80.7123 40.2123 81.2203 40.6123 81.5883C41.0203 81.9483 41.5123 82.1283 42.0883 82.1283C42.5603 82.1283 42.9523 82.0203 43.2643 81.8043C43.5843 81.5803 43.8083 81.2843 43.9363 80.9163H45.1123C44.9363 81.5483 44.5843 82.0643 44.0563 82.4643C43.5283 82.8563 42.8723 83.0523 42.0883 83.0523C41.4643 83.0523 40.9043 82.9123 40.4083 82.6323C39.9203 82.3523 39.5363 81.9563 39.2563 81.4443C38.9763 80.9243 38.8363 80.3243 38.8363 79.6443C38.8363 78.9643 38.9723 78.3683 39.2443 77.8563C39.5163 77.3443 39.8963 76.9523 40.3843 76.6803C40.8803 76.4003 41.4483 76.2603 42.0883 76.2603C42.7123 76.2603 43.2643 76.3963 43.7443 76.6683C44.2243 76.9403 44.5923 77.3163 44.8483 77.7963C45.1123 78.2683 45.2443 78.8043 45.2443 79.4043ZM44.1163 79.1763C44.1163 78.7603 44.0243 78.4043 43.8403 78.1083C43.6563 77.8043 43.4043 77.5763 43.0843 77.4243C42.7723 77.2643 42.4243 77.1843 42.0403 77.1843C41.4883 77.1843 41.0163 77.3603 40.6243 77.7123C40.2403 78.0643 40.0203 78.5523 39.9643 79.1763H44.1163Z" fill="#8A8B8C" />
        <path d="M5.868 125.084H2.22L1.548 126.944H0.396L3.42 118.628H4.68L7.692 126.944H6.54L5.868 125.084ZM5.556 124.196L4.044 119.972L2.532 124.196H5.556ZM11.7219 120.26C12.2899 120.26 12.7859 120.384 13.2099 120.632C13.6419 120.88 13.9619 121.192 14.1699 121.568V120.368H15.2739V127.088C15.2739 127.688 15.1459 128.22 14.8899 128.684C14.6339 129.156 14.2659 129.524 13.7859 129.788C13.3139 130.052 12.7619 130.184 12.1299 130.184C11.2659 130.184 10.5459 129.98 9.96994 129.572C9.39394 129.164 9.05394 128.608 8.94994 127.904H10.0299C10.1499 128.304 10.3979 128.624 10.7739 128.864C11.1499 129.112 11.6019 129.236 12.1299 129.236C12.7299 129.236 13.2179 129.048 13.5939 128.672C13.9779 128.296 14.1699 127.768 14.1699 127.088V125.708C13.9539 126.092 13.6339 126.412 13.2099 126.668C12.7859 126.924 12.2899 127.052 11.7219 127.052C11.1379 127.052 10.6059 126.908 10.1259 126.62C9.65394 126.332 9.28194 125.928 9.00994 125.408C8.73794 124.888 8.60194 124.296 8.60194 123.632C8.60194 122.96 8.73794 122.372 9.00994 121.868C9.28194 121.356 9.65394 120.96 10.1259 120.68C10.6059 120.4 11.1379 120.26 11.7219 120.26ZM14.1699 123.644C14.1699 123.148 14.0699 122.716 13.8699 122.348C13.6699 121.98 13.3979 121.7 13.0539 121.508C12.7179 121.308 12.3459 121.208 11.9379 121.208C11.5299 121.208 11.1579 121.304 10.8219 121.496C10.4859 121.688 10.2179 121.968 10.0179 122.336C9.81794 122.704 9.71794 123.136 9.71794 123.632C9.71794 124.136 9.81794 124.576 10.0179 124.952C10.2179 125.32 10.4859 125.604 10.8219 125.804C11.1579 125.996 11.5299 126.092 11.9379 126.092C12.3459 126.092 12.7179 125.996 13.0539 125.804C13.3979 125.604 13.6699 125.32 13.8699 124.952C14.0699 124.576 14.1699 124.14 14.1699 123.644ZM16.7113 123.632C16.7113 122.96 16.8473 122.372 17.1193 121.868C17.3913 121.356 17.7633 120.96 18.2353 120.68C18.7153 120.4 19.2513 120.26 19.8433 120.26C20.3553 120.26 20.8313 120.38 21.2713 120.62C21.7113 120.852 22.0473 121.16 22.2793 121.544V118.064H23.3833V126.944H22.2793V125.708C22.0633 126.1 21.7433 126.424 21.3193 126.68C20.8953 126.928 20.3993 127.052 19.8313 127.052C19.2473 127.052 18.7153 126.908 18.2353 126.62C17.7633 126.332 17.3913 125.928 17.1193 125.408C16.8473 124.888 16.7113 124.296 16.7113 123.632ZM22.2793 123.644C22.2793 123.148 22.1793 122.716 21.9793 122.348C21.7793 121.98 21.5073 121.7 21.1633 121.508C20.8273 121.308 20.4553 121.208 20.0473 121.208C19.6393 121.208 19.2673 121.304 18.9313 121.496C18.5953 121.688 18.3273 121.968 18.1273 122.336C17.9273 122.704 17.8273 123.136 17.8273 123.632C17.8273 124.136 17.9273 124.576 18.1273 124.952C18.3273 125.32 18.5953 125.604 18.9313 125.804C19.2673 125.996 19.6393 126.092 20.0473 126.092C20.4553 126.092 20.8273 125.996 21.1633 125.804C21.5073 125.604 21.7793 125.32 21.9793 124.952C22.1793 124.576 22.2793 124.14 22.2793 123.644ZM24.8207 123.632C24.8207 122.96 24.9567 122.372 25.2287 121.868C25.5007 121.356 25.8727 120.96 26.3447 120.68C26.8247 120.4 27.3567 120.26 27.9407 120.26C28.5167 120.26 29.0167 120.384 29.4407 120.632C29.8647 120.88 30.1807 121.192 30.3887 121.568V120.368H31.4927V126.944H30.3887V125.72C30.1727 126.104 29.8487 126.424 29.4167 126.68C28.9927 126.928 28.4967 127.052 27.9287 127.052C27.3447 127.052 26.8167 126.908 26.3447 126.62C25.8727 126.332 25.5007 125.928 25.2287 125.408C24.9567 124.888 24.8207 124.296 24.8207 123.632ZM30.3887 123.644C30.3887 123.148 30.2887 122.716 30.0887 122.348C29.8887 121.98 29.6167 121.7 29.2727 121.508C28.9367 121.308 28.5647 121.208 28.1567 121.208C27.7487 121.208 27.3767 121.304 27.0407 121.496C26.7047 121.688 26.4367 121.968 26.2367 122.336C26.0367 122.704 25.9367 123.136 25.9367 123.632C25.9367 124.136 26.0367 124.576 26.2367 124.952C26.4367 125.32 26.7047 125.604 27.0407 125.804C27.3767 125.996 27.7487 126.092 28.1567 126.092C28.5647 126.092 28.9367 125.996 29.2727 125.804C29.6167 125.604 29.8887 125.32 30.0887 124.952C30.2887 124.576 30.3887 124.14 30.3887 123.644ZM36.2061 127.052C35.5901 127.052 35.0301 126.912 34.5261 126.632C34.0301 126.352 33.6381 125.956 33.3501 125.444C33.0701 124.924 32.9301 124.324 32.9301 123.644C32.9301 122.972 33.0741 122.38 33.3621 121.868C33.6581 121.348 34.0581 120.952 34.5621 120.68C35.0661 120.4 35.6301 120.26 36.2541 120.26C36.8781 120.26 37.4421 120.4 37.9461 120.68C38.4501 120.952 38.8461 121.344 39.1341 121.856C39.4301 122.368 39.5781 122.964 39.5781 123.644C39.5781 124.324 39.4261 124.924 39.1221 125.444C38.8261 125.956 38.4221 126.352 37.9101 126.632C37.3981 126.912 36.8301 127.052 36.2061 127.052ZM36.2061 126.092C36.5981 126.092 36.9661 126 37.3101 125.816C37.6541 125.632 37.9301 125.356 38.1381 124.988C38.3541 124.62 38.4621 124.172 38.4621 123.644C38.4621 123.116 38.3581 122.668 38.1501 122.3C37.9421 121.932 37.6701 121.66 37.3341 121.484C36.9981 121.3 36.6341 121.208 36.2421 121.208C35.8421 121.208 35.4741 121.3 35.1381 121.484C34.8101 121.66 34.5461 121.932 34.3461 122.3C34.1461 122.668 34.0461 123.116 34.0461 123.644C34.0461 124.18 34.1421 124.632 34.3341 125C34.5341 125.368 34.7981 125.644 35.1261 125.828C35.4541 126.004 35.8141 126.092 36.2061 126.092Z" fill="#77838F" />
        <path d="M2.016 170.056H4.944V170.944H0.924V162.58H2.016V170.056ZM5.69569 167.632C5.69569 166.96 5.83169 166.372 6.10369 165.868C6.37569 165.356 6.74769 164.96 7.21969 164.68C7.69969 164.4 8.23169 164.26 8.81569 164.26C9.39169 164.26 9.89169 164.384 10.3157 164.632C10.7397 164.88 11.0557 165.192 11.2637 165.568V164.368H12.3677V170.944H11.2637V169.72C11.0477 170.104 10.7237 170.424 10.2917 170.68C9.86769 170.928 9.37169 171.052 8.80369 171.052C8.21969 171.052 7.69169 170.908 7.21969 170.62C6.74769 170.332 6.37569 169.928 6.10369 169.408C5.83169 168.888 5.69569 168.296 5.69569 167.632ZM11.2637 167.644C11.2637 167.148 11.1637 166.716 10.9637 166.348C10.7637 165.98 10.4917 165.7 10.1477 165.508C9.81169 165.308 9.43969 165.208 9.03169 165.208C8.62369 165.208 8.25169 165.304 7.91569 165.496C7.57969 165.688 7.31169 165.968 7.11169 166.336C6.91169 166.704 6.81169 167.136 6.81169 167.632C6.81169 168.136 6.91169 168.576 7.11169 168.952C7.31169 169.32 7.57969 169.604 7.91569 169.804C8.25169 169.996 8.62369 170.092 9.03169 170.092C9.43969 170.092 9.81169 169.996 10.1477 169.804C10.4917 169.604 10.7637 169.32 10.9637 168.952C11.1637 168.576 11.2637 168.14 11.2637 167.644ZM17.4171 164.248C18.2171 164.248 18.8651 164.492 19.3611 164.98C19.8571 165.46 20.1051 166.156 20.1051 167.068V170.944H19.0251V167.224C19.0251 166.568 18.8611 166.068 18.5331 165.724C18.2051 165.372 17.7571 165.196 17.1891 165.196C16.6131 165.196 16.1531 165.376 15.8091 165.736C15.4731 166.096 15.3051 166.62 15.3051 167.308V170.944H14.2131V164.368H15.3051V165.304C15.5211 164.968 15.8131 164.708 16.1811 164.524C16.5571 164.34 16.9691 164.248 17.4171 164.248ZM21.4808 167.632C21.4808 166.96 21.6168 166.372 21.8888 165.868C22.1608 165.356 22.5328 164.96 23.0048 164.68C23.4848 164.4 24.0168 164.26 24.6008 164.26C25.1768 164.26 25.6768 164.384 26.1008 164.632C26.5248 164.88 26.8408 165.192 27.0488 165.568V164.368H28.1528V170.944H27.0488V169.72C26.8328 170.104 26.5088 170.424 26.0768 170.68C25.6528 170.928 25.1568 171.052 24.5888 171.052C24.0048 171.052 23.4768 170.908 23.0048 170.62C22.5328 170.332 22.1608 169.928 21.8888 169.408C21.6168 168.888 21.4808 168.296 21.4808 167.632ZM27.0488 167.644C27.0488 167.148 26.9488 166.716 26.7488 166.348C26.5488 165.98 26.2768 165.7 25.9328 165.508C25.5968 165.308 25.2248 165.208 24.8168 165.208C24.4088 165.208 24.0368 165.304 23.7008 165.496C23.3648 165.688 23.0968 165.968 22.8968 166.336C22.6968 166.704 22.5968 167.136 22.5968 167.632C22.5968 168.136 22.6968 168.576 22.8968 168.952C23.0968 169.32 23.3648 169.604 23.7008 169.804C24.0368 169.996 24.4088 170.092 24.8168 170.092C25.2248 170.092 25.5968 169.996 25.9328 169.804C26.2768 169.604 26.5488 169.32 26.7488 168.952C26.9488 168.576 27.0488 168.14 27.0488 167.644ZM33.2022 164.248C34.0022 164.248 34.6502 164.492 35.1462 164.98C35.6422 165.46 35.8902 166.156 35.8902 167.068V170.944H34.8102V167.224C34.8102 166.568 34.6462 166.068 34.3182 165.724C33.9902 165.372 33.5422 165.196 32.9742 165.196C32.3982 165.196 31.9382 165.376 31.5942 165.736C31.2582 166.096 31.0902 166.62 31.0902 167.308V170.944H29.9982V164.368H31.0902V165.304C31.3062 164.968 31.5982 164.708 31.9662 164.524C32.3422 164.34 32.7542 164.248 33.2022 164.248ZM40.386 164.26C40.954 164.26 41.45 164.384 41.874 164.632C42.306 164.88 42.626 165.192 42.834 165.568V164.368H43.938V171.088C43.938 171.688 43.81 172.22 43.554 172.684C43.298 173.156 42.93 173.524 42.45 173.788C41.978 174.052 41.426 174.184 40.794 174.184C39.93 174.184 39.21 173.98 38.634 173.572C38.058 173.164 37.718 172.608 37.614 171.904H38.694C38.814 172.304 39.062 172.624 39.438 172.864C39.814 173.112 40.266 173.236 40.794 173.236C41.394 173.236 41.882 173.048 42.258 172.672C42.642 172.296 42.834 171.768 42.834 171.088V169.708C42.618 170.092 42.298 170.412 41.874 170.668C41.45 170.924 40.954 171.052 40.386 171.052C39.802 171.052 39.27 170.908 38.79 170.62C38.318 170.332 37.946 169.928 37.674 169.408C37.402 168.888 37.266 168.296 37.266 167.632C37.266 166.96 37.402 166.372 37.674 165.868C37.946 165.356 38.318 164.96 38.79 164.68C39.27 164.4 39.802 164.26 40.386 164.26ZM42.834 167.644C42.834 167.148 42.734 166.716 42.534 166.348C42.334 165.98 42.062 165.7 41.718 165.508C41.382 165.308 41.01 165.208 40.602 165.208C40.194 165.208 39.822 165.304 39.486 165.496C39.15 165.688 38.882 165.968 38.682 166.336C38.482 166.704 38.382 167.136 38.382 167.632C38.382 168.136 38.482 168.576 38.682 168.952C38.882 169.32 39.15 169.604 39.486 169.804C39.822 169.996 40.194 170.092 40.602 170.092C41.01 170.092 41.382 169.996 41.718 169.804C42.062 169.604 42.334 169.32 42.534 168.952C42.734 168.576 42.834 168.14 42.834 167.644Z" fill="#77838F" />
        <path d="M3.576 215.028C3.024 215.028 2.528 214.932 2.088 214.74C1.656 214.54 1.316 214.268 1.068 213.924C0.82 213.572 0.692 213.168 0.684 212.712H1.848C1.888 213.104 2.048 213.436 2.328 213.708C2.616 213.972 3.032 214.104 3.576 214.104C4.096 214.104 4.504 213.976 4.8 213.72C5.104 213.456 5.256 213.12 5.256 212.712C5.256 212.392 5.168 212.132 4.992 211.932C4.816 211.732 4.596 211.58 4.332 211.476C4.068 211.372 3.712 211.26 3.264 211.14C2.712 210.996 2.268 210.852 1.932 210.708C1.604 210.564 1.32 210.34 1.08 210.036C0.848 209.724 0.732 209.308 0.732 208.788C0.732 208.332 0.848 207.928 1.08 207.576C1.312 207.224 1.636 206.952 2.052 206.76C2.476 206.568 2.96 206.472 3.504 206.472C4.288 206.472 4.928 206.668 5.424 207.06C5.928 207.452 6.212 207.972 6.276 208.62H5.076C5.036 208.3 4.868 208.02 4.572 207.78C4.276 207.532 3.884 207.408 3.396 207.408C2.94 207.408 2.568 207.528 2.28 207.768C1.992 208 1.848 208.328 1.848 208.752C1.848 209.056 1.932 209.304 2.1 209.496C2.276 209.688 2.488 209.836 2.736 209.94C2.992 210.036 3.348 210.148 3.804 210.276C4.356 210.428 4.8 210.58 5.136 210.732C5.472 210.876 5.76 211.104 6 211.416C6.24 211.72 6.36 212.136 6.36 212.664C6.36 213.072 6.252 213.456 6.036 213.816C5.82 214.176 5.5 214.468 5.076 214.692C4.652 214.916 4.152 215.028 3.576 215.028ZM7.55897 211.632C7.55897 210.96 7.69497 210.372 7.96697 209.868C8.23897 209.356 8.61097 208.96 9.08297 208.68C9.56297 208.4 10.095 208.26 10.679 208.26C11.255 208.26 11.755 208.384 12.179 208.632C12.603 208.88 12.919 209.192 13.127 209.568V208.368H14.231V214.944H13.127V213.72C12.911 214.104 12.587 214.424 12.155 214.68C11.731 214.928 11.235 215.052 10.667 215.052C10.083 215.052 9.55497 214.908 9.08297 214.62C8.61097 214.332 8.23897 213.928 7.96697 213.408C7.69497 212.888 7.55897 212.296 7.55897 211.632ZM13.127 211.644C13.127 211.148 13.027 210.716 12.827 210.348C12.627 209.98 12.355 209.7 12.011 209.508C11.675 209.308 11.303 209.208 10.895 209.208C10.487 209.208 10.115 209.304 9.77897 209.496C9.44297 209.688 9.17497 209.968 8.97497 210.336C8.77497 210.704 8.67497 211.136 8.67497 211.632C8.67497 212.136 8.77497 212.576 8.97497 212.952C9.17497 213.32 9.44297 213.604 9.77897 213.804C10.115 213.996 10.487 214.092 10.895 214.092C11.303 214.092 11.675 213.996 12.011 213.804C12.355 213.604 12.627 213.32 12.827 212.952C13.027 212.576 13.127 212.14 13.127 211.644ZM18.4043 215.052C17.9003 215.052 17.4483 214.968 17.0483 214.8C16.6483 214.624 16.3323 214.384 16.1003 214.08C15.8683 213.768 15.7403 213.412 15.7163 213.012H16.8443C16.8763 213.34 17.0283 213.608 17.3003 213.816C17.5803 214.024 17.9443 214.128 18.3923 214.128C18.8083 214.128 19.1363 214.036 19.3763 213.852C19.6163 213.668 19.7363 213.436 19.7363 213.156C19.7363 212.868 19.6083 212.656 19.3523 212.52C19.0963 212.376 18.7003 212.236 18.1643 212.1C17.6763 211.972 17.2763 211.844 16.9643 211.716C16.6603 211.58 16.3963 211.384 16.1723 211.128C15.9563 210.864 15.8483 210.52 15.8483 210.096C15.8483 209.76 15.9483 209.452 16.1483 209.172C16.3483 208.892 16.6323 208.672 17.0003 208.512C17.3683 208.344 17.7883 208.26 18.2603 208.26C18.9883 208.26 19.5763 208.444 20.0243 208.812C20.4723 209.18 20.7123 209.684 20.7443 210.324H19.6523C19.6283 209.98 19.4883 209.704 19.2323 209.496C18.9843 209.288 18.6483 209.184 18.2243 209.184C17.8323 209.184 17.5203 209.268 17.2883 209.436C17.0563 209.604 16.9403 209.824 16.9403 210.096C16.9403 210.312 17.0083 210.492 17.1443 210.636C17.2883 210.772 17.4643 210.884 17.6723 210.972C17.8883 211.052 18.1843 211.144 18.5603 211.248C19.0323 211.376 19.4163 211.504 19.7123 211.632C20.0083 211.752 20.2603 211.936 20.4683 212.184C20.6843 212.432 20.7963 212.756 20.8043 213.156C20.8043 213.516 20.7043 213.84 20.5043 214.128C20.3043 214.416 20.0203 214.644 19.6523 214.812C19.2923 214.972 18.8763 215.052 18.4043 215.052ZM21.9379 211.632C21.9379 210.96 22.0739 210.372 22.3459 209.868C22.6179 209.356 22.9899 208.96 23.4619 208.68C23.9419 208.4 24.4739 208.26 25.0579 208.26C25.6339 208.26 26.1339 208.384 26.5579 208.632C26.9819 208.88 27.2979 209.192 27.5059 209.568V208.368H28.6099V214.944H27.5059V213.72C27.2899 214.104 26.9659 214.424 26.5339 214.68C26.1099 214.928 25.6139 215.052 25.0459 215.052C24.4619 215.052 23.9339 214.908 23.4619 214.62C22.9899 214.332 22.6179 213.928 22.3459 213.408C22.0739 212.888 21.9379 212.296 21.9379 211.632ZM27.5059 211.644C27.5059 211.148 27.4059 210.716 27.2059 210.348C27.0059 209.98 26.7339 209.7 26.3899 209.508C26.0539 209.308 25.6819 209.208 25.2739 209.208C24.8659 209.208 24.4939 209.304 24.1579 209.496C23.8219 209.688 23.5539 209.968 23.3539 210.336C23.1539 210.704 23.0539 211.136 23.0539 211.632C23.0539 212.136 23.1539 212.576 23.3539 212.952C23.5539 213.32 23.8219 213.604 24.1579 213.804C24.4939 213.996 24.8659 214.092 25.2739 214.092C25.6819 214.092 26.0539 213.996 26.3899 213.804C26.7339 213.604 27.0059 213.32 27.2059 212.952C27.4059 212.576 27.5059 212.14 27.5059 211.644Z" fill="#77838F" />
        <path d="M7.5 258.944H6.408L2.016 252.284V258.944H0.924V250.568H2.016L6.408 257.216V250.568H7.5V258.944ZM9.7095 259.016C9.5015 259.016 9.3255 258.944 9.1815 258.8C9.0375 258.656 8.9655 258.48 8.9655 258.272C8.9655 258.064 9.0375 257.888 9.1815 257.744C9.3255 257.6 9.5015 257.528 9.7095 257.528C9.9095 257.528 10.0775 257.6 10.2135 257.744C10.3575 257.888 10.4295 258.064 10.4295 258.272C10.4295 258.48 10.3575 258.656 10.2135 258.8C10.0775 258.944 9.9095 259.016 9.7095 259.016ZM12.949 250.58V255.872C12.949 256.616 13.129 257.168 13.489 257.528C13.857 257.888 14.365 258.068 15.013 258.068C15.653 258.068 16.153 257.888 16.513 257.528C16.881 257.168 17.065 256.616 17.065 255.872V250.58H18.157V255.86C18.157 256.556 18.017 257.144 17.737 257.624C17.457 258.096 17.077 258.448 16.597 258.68C16.125 258.912 15.593 259.028 15.001 259.028C14.409 259.028 13.873 258.912 13.393 258.68C12.921 258.448 12.545 258.096 12.265 257.624C11.993 257.144 11.857 256.556 11.857 255.86V250.58H12.949ZM21.0707 253.592C21.2947 253.2 21.6227 252.88 22.0547 252.632C22.4867 252.384 22.9787 252.26 23.5307 252.26C24.1227 252.26 24.6547 252.4 25.1267 252.68C25.5987 252.96 25.9707 253.356 26.2427 253.868C26.5147 254.372 26.6507 254.96 26.6507 255.632C26.6507 256.296 26.5147 256.888 26.2427 257.408C25.9707 257.928 25.5947 258.332 25.1147 258.62C24.6427 258.908 24.1147 259.052 23.5307 259.052C22.9627 259.052 22.4627 258.928 22.0307 258.68C21.6067 258.432 21.2867 258.116 21.0707 257.732V258.944H19.9787V250.064H21.0707V253.592ZM25.5347 255.632C25.5347 255.136 25.4347 254.704 25.2347 254.336C25.0347 253.968 24.7627 253.688 24.4187 253.496C24.0827 253.304 23.7107 253.208 23.3027 253.208C22.9027 253.208 22.5307 253.308 22.1867 253.508C21.8507 253.7 21.5787 253.984 21.3707 254.36C21.1707 254.728 21.0707 255.156 21.0707 255.644C21.0707 256.14 21.1707 256.576 21.3707 256.952C21.5787 257.32 21.8507 257.604 22.1867 257.804C22.5307 257.996 22.9027 258.092 23.3027 258.092C23.7107 258.092 24.0827 257.996 24.4187 257.804C24.7627 257.604 25.0347 257.32 25.2347 256.952C25.4347 256.576 25.5347 256.136 25.5347 255.632ZM27.6801 255.632C27.6801 254.96 27.8161 254.372 28.0881 253.868C28.3601 253.356 28.7321 252.96 29.2041 252.68C29.6841 252.4 30.2161 252.26 30.8001 252.26C31.3761 252.26 31.8761 252.384 32.3001 252.632C32.7241 252.88 33.0401 253.192 33.2481 253.568V252.368H34.3521V258.944H33.2481V257.72C33.0321 258.104 32.7081 258.424 32.2761 258.68C31.8521 258.928 31.3561 259.052 30.7881 259.052C30.2041 259.052 29.6761 258.908 29.2041 258.62C28.7321 258.332 28.3601 257.928 28.0881 257.408C27.8161 256.888 27.6801 256.296 27.6801 255.632ZM33.2481 255.644C33.2481 255.148 33.1481 254.716 32.9481 254.348C32.7481 253.98 32.4761 253.7 32.1321 253.508C31.7961 253.308 31.4241 253.208 31.0161 253.208C30.6081 253.208 30.2361 253.304 29.9001 253.496C29.5641 253.688 29.2961 253.968 29.0961 254.336C28.8961 254.704 28.7961 255.136 28.7961 255.632C28.7961 256.136 28.8961 256.576 29.0961 256.952C29.2961 257.32 29.5641 257.604 29.9001 257.804C30.2361 257.996 30.6081 258.092 31.0161 258.092C31.4241 258.092 31.7961 257.996 32.1321 257.804C32.4761 257.604 32.7481 257.32 32.9481 256.952C33.1481 256.576 33.2481 256.14 33.2481 255.644ZM37.2894 250.064V258.944H36.1974V250.064H37.2894ZM38.7426 255.632C38.7426 254.96 38.8786 254.372 39.1506 253.868C39.4226 253.356 39.7946 252.96 40.2666 252.68C40.7466 252.4 41.2826 252.26 41.8746 252.26C42.3866 252.26 42.8626 252.38 43.3026 252.62C43.7426 252.852 44.0786 253.16 44.3106 253.544V250.064H45.4146V258.944H44.3106V257.708C44.0946 258.1 43.7746 258.424 43.3506 258.68C42.9266 258.928 42.4306 259.052 41.8626 259.052C41.2786 259.052 40.7466 258.908 40.2666 258.62C39.7946 258.332 39.4226 257.928 39.1506 257.408C38.8786 256.888 38.7426 256.296 38.7426 255.632ZM44.3106 255.644C44.3106 255.148 44.2106 254.716 44.0106 254.348C43.8106 253.98 43.5386 253.7 43.1946 253.508C42.8586 253.308 42.4866 253.208 42.0786 253.208C41.6706 253.208 41.2986 253.304 40.9626 253.496C40.6266 253.688 40.3586 253.968 40.1586 254.336C39.9586 254.704 39.8586 255.136 39.8586 255.632C39.8586 256.136 39.9586 256.576 40.1586 256.952C40.3586 257.32 40.6266 257.604 40.9626 257.804C41.2986 257.996 41.6706 258.092 42.0786 258.092C42.4866 258.092 42.8586 257.996 43.1946 257.804C43.5386 257.604 43.8106 257.32 44.0106 256.952C44.2106 256.576 44.3106 256.14 44.3106 255.644ZM53.2599 255.404C53.2599 255.612 53.2479 255.832 53.2239 256.064H47.9679C48.0079 256.712 48.2279 257.22 48.6279 257.588C49.0359 257.948 49.5279 258.128 50.1039 258.128C50.5759 258.128 50.9679 258.02 51.2799 257.804C51.5999 257.58 51.8239 257.284 51.9519 256.916H53.1279C52.9519 257.548 52.5999 258.064 52.0719 258.464C51.5439 258.856 50.8879 259.052 50.1039 259.052C49.4799 259.052 48.9199 258.912 48.4239 258.632C47.9359 258.352 47.5519 257.956 47.2719 257.444C46.9919 256.924 46.8519 256.324 46.8519 255.644C46.8519 254.964 46.9879 254.368 47.2599 253.856C47.5319 253.344 47.9119 252.952 48.3999 252.68C48.8959 252.4 49.4639 252.26 50.1039 252.26C50.7279 252.26 51.2799 252.396 51.7599 252.668C52.2399 252.94 52.6079 253.316 52.8639 253.796C53.1279 254.268 53.2599 254.804 53.2599 255.404ZM52.1319 255.176C52.1319 254.76 52.0399 254.404 51.8559 254.108C51.6719 253.804 51.4199 253.576 51.0999 253.424C50.7879 253.264 50.4399 253.184 50.0559 253.184C49.5039 253.184 49.0319 253.36 48.6399 253.712C48.2559 254.064 48.0359 254.552 47.9799 255.176H52.1319Z" fill="#77838F" />
        <path d="M71.3569 30.3539H498.011" stroke="#EEEEEE" stroke-width="1.18292" />
        <path d="M71.3569 76.1898H498.011" stroke="#EEEEEE" stroke-width="1.18292" />
        <path d="M71.3569 122.026H498.011" stroke="#EEEEEE" stroke-width="1.18292" />
        <path d="M71.3569 167.862H498.011" stroke="#EEEEEE" stroke-width="1.18292" />
        <path d="M71.3569 213.698H498.011" stroke="#EEEEEE" stroke-width="1.18292" />
        <path d="M71.3569 259.534H498.011" stroke="#EEEEEE" stroke-width="1.18292" />
        <path d="M89 180.755C89 175.529 93.2369 171.292 98.4634 171.292H115.215C120.441 171.292 124.678 175.529 124.678 180.755V259.001H89V180.755Z" fill="#E6EEF5" />
        <path d="M160.357 140.617C160.357 135.39 164.594 131.153 169.82 131.153H186.572C191.798 131.153 196.035 135.39 196.035 140.617V259.001H160.357V140.617Z" fill="#E6EEF5" />
        <path d="M231.713 79.6665C231.713 74.44 235.95 70.2031 241.177 70.2031H257.928C263.155 70.2031 267.392 74.44 267.392 79.6665V259.001H231.713V79.6665Z" fill="#1B6EC2" />
        <path d="M303.07 139.13C303.07 133.904 307.307 129.667 312.534 129.667H329.285C334.512 129.667 338.749 133.904 338.749 139.13V259.001H303.07V139.13Z" fill="#E6EEF5" />
        <path d="M374.427 180.755C374.427 175.529 378.664 171.292 383.891 171.292H400.642C405.869 171.292 410.106 175.529 410.106 180.755V259.001H374.427V180.755Z" fill="#E6EEF5" />
        <path d="M445.784 225.353C445.784 220.127 450.021 215.89 455.247 215.89H470.512C475.739 215.89 479.975 220.127 479.975 225.353V259.001H445.784V225.353Z" fill="#E6EEF5" />
        <path d="M101.421 273.327H97.4371V275.693C97.6036 275.471 97.8493 275.285 98.1744 275.134C98.5074 274.984 98.8602 274.908 99.2329 274.908C99.8989 274.908 100.438 275.051 100.85 275.337C101.271 275.622 101.568 275.983 101.742 276.419C101.925 276.855 102.016 277.315 102.016 277.798C102.016 278.385 101.901 278.908 101.671 279.368C101.449 279.82 101.112 280.177 100.66 280.439C100.216 280.7 99.6689 280.831 99.0188 280.831C98.1546 280.831 97.4608 280.617 96.9376 280.189C96.4143 279.761 96.1011 279.194 95.998 278.488H97.3181C97.4053 278.861 97.5996 279.158 97.9009 279.38C98.2022 279.594 98.5788 279.701 99.0307 279.701C99.5936 279.701 100.014 279.531 100.291 279.19C100.577 278.849 100.719 278.397 100.719 277.834C100.719 277.263 100.577 276.827 100.291 276.526C100.006 276.217 99.5857 276.062 99.0307 276.062C98.6422 276.062 98.3132 276.161 98.0436 276.359C97.782 276.55 97.5917 276.811 97.4727 277.144H96.1883V272.137H101.421V273.327ZM103.427 276.383C103.427 275.012 103.657 273.941 104.117 273.172C104.585 272.395 105.385 272.007 106.519 272.007C107.653 272.007 108.45 272.395 108.91 273.172C109.377 273.941 109.611 275.012 109.611 276.383C109.611 277.771 109.377 278.857 108.91 279.642C108.45 280.419 107.653 280.807 106.519 280.807C105.385 280.807 104.585 280.419 104.117 279.642C103.657 278.857 103.427 277.771 103.427 276.383ZM108.279 276.383C108.279 275.741 108.236 275.198 108.149 274.754C108.069 274.31 107.903 273.949 107.649 273.672C107.395 273.386 107.019 273.243 106.519 273.243C106.02 273.243 105.643 273.386 105.389 273.672C105.136 273.949 104.965 274.31 104.878 274.754C104.799 275.198 104.759 275.741 104.759 276.383C104.759 277.049 104.799 277.608 104.878 278.06C104.957 278.512 105.124 278.877 105.378 279.154C105.639 279.432 106.02 279.57 106.519 279.57C107.019 279.57 107.395 279.432 107.649 279.154C107.911 278.877 108.081 278.512 108.16 278.06C108.24 277.608 108.279 277.049 108.279 276.383ZM110.832 274.254C110.832 273.676 110.998 273.224 111.331 272.899C111.672 272.566 112.108 272.399 112.64 272.399C113.171 272.399 113.603 272.566 113.936 272.899C114.277 273.224 114.447 273.676 114.447 274.254C114.447 274.833 114.277 275.289 113.936 275.622C113.603 275.955 113.171 276.122 112.64 276.122C112.108 276.122 111.672 275.955 111.331 275.622C110.998 275.289 110.832 274.833 110.832 274.254ZM118.086 272.554L113.341 280.831H112.009L116.754 272.554H118.086ZM112.64 273.22C112.14 273.22 111.89 273.565 111.89 274.254C111.89 274.952 112.14 275.301 112.64 275.301C112.877 275.301 113.06 275.218 113.187 275.051C113.321 274.877 113.389 274.611 113.389 274.254C113.389 273.565 113.139 273.22 112.64 273.22ZM115.672 279.118C115.672 278.54 115.839 278.088 116.172 277.763C116.513 277.43 116.949 277.263 117.48 277.263C118.003 277.263 118.431 277.43 118.764 277.763C119.105 278.088 119.276 278.54 119.276 279.118C119.276 279.697 119.105 280.153 118.764 280.486C118.431 280.819 118.003 280.986 117.48 280.986C116.949 280.986 116.513 280.819 116.172 280.486C115.839 280.153 115.672 279.697 115.672 279.118ZM117.468 278.084C116.969 278.084 116.719 278.429 116.719 279.118C116.719 279.808 116.969 280.153 117.468 280.153C117.968 280.153 118.217 279.808 118.217 279.118C118.217 278.429 117.968 278.084 117.468 278.084Z" fill="#333435" />
        <path d="M172.653 271.72L169.347 279.344H167.979L171.321 271.863H166.921V270.71H172.653V271.72ZM173.814 274.896C173.814 273.524 174.044 272.454 174.503 271.685C174.971 270.908 175.772 270.519 176.906 270.519C178.04 270.519 178.836 270.908 179.296 271.685C179.764 272.454 179.998 273.524 179.998 274.896C179.998 276.283 179.764 277.37 179.296 278.154C178.836 278.931 178.04 279.32 176.906 279.32C175.772 279.32 174.971 278.931 174.503 278.154C174.044 277.37 173.814 276.283 173.814 274.896ZM178.666 274.896C178.666 274.254 178.622 273.711 178.535 273.267C178.456 272.823 178.289 272.462 178.036 272.184C177.782 271.899 177.405 271.756 176.906 271.756C176.406 271.756 176.03 271.899 175.776 272.184C175.522 272.462 175.352 272.823 175.265 273.267C175.185 273.711 175.146 274.254 175.146 274.896C175.146 275.562 175.185 276.121 175.265 276.573C175.344 277.025 175.51 277.389 175.764 277.667C176.026 277.944 176.406 278.083 176.906 278.083C177.405 278.083 177.782 277.944 178.036 277.667C178.297 277.389 178.468 277.025 178.547 276.573C178.626 276.121 178.666 275.562 178.666 274.896ZM181.218 272.767C181.218 272.188 181.385 271.736 181.718 271.411C182.059 271.078 182.495 270.912 183.026 270.912C183.557 270.912 183.989 271.078 184.322 271.411C184.663 271.736 184.834 272.188 184.834 272.767C184.834 273.346 184.663 273.802 184.322 274.135C183.989 274.468 183.557 274.634 183.026 274.634C182.495 274.634 182.059 274.468 181.718 274.135C181.385 273.802 181.218 273.346 181.218 272.767ZM188.473 271.066L183.728 279.344H182.396L187.141 271.066H188.473ZM183.026 271.732C182.527 271.732 182.277 272.077 182.277 272.767C182.277 273.465 182.527 273.814 183.026 273.814C183.264 273.814 183.446 273.73 183.573 273.564C183.708 273.389 183.775 273.124 183.775 272.767C183.775 272.077 183.526 271.732 183.026 271.732ZM186.059 277.631C186.059 277.052 186.225 276.6 186.558 276.275C186.899 275.942 187.335 275.776 187.867 275.776C188.39 275.776 188.818 275.942 189.151 276.275C189.492 276.6 189.662 277.052 189.662 277.631C189.662 278.21 189.492 278.666 189.151 278.999C188.818 279.332 188.39 279.498 187.867 279.498C187.335 279.498 186.899 279.332 186.558 278.999C186.225 278.666 186.059 278.21 186.059 277.631ZM187.855 276.597C187.355 276.597 187.105 276.941 187.105 277.631C187.105 278.321 187.355 278.666 187.855 278.666C188.354 278.666 188.604 278.321 188.604 277.631C188.604 276.941 188.354 276.597 187.855 276.597Z" fill="#333435" />
        <path d="M240.274 277.732C240.354 278.129 240.524 278.43 240.786 278.636C241.047 278.842 241.4 278.945 241.844 278.945C242.407 278.945 242.819 278.723 243.081 278.279C243.343 277.835 243.473 277.078 243.473 276.008C243.283 276.277 243.014 276.487 242.665 276.638C242.324 276.781 241.951 276.852 241.547 276.852C241.032 276.852 240.564 276.749 240.144 276.543C239.723 276.329 239.39 276.016 239.145 275.603C238.907 275.183 238.788 274.676 238.788 274.081C238.788 273.209 239.041 272.515 239.549 272C240.064 271.477 240.77 271.215 241.666 271.215C242.744 271.215 243.509 271.576 243.961 272.297C244.421 273.011 244.651 274.109 244.651 275.591C244.651 276.614 244.564 277.451 244.389 278.101C244.223 278.751 243.929 279.243 243.509 279.576C243.089 279.909 242.506 280.075 241.761 280.075C240.913 280.075 240.258 279.853 239.799 279.409C239.339 278.965 239.081 278.406 239.026 277.732H240.274ZM241.785 275.71C242.26 275.71 242.633 275.564 242.903 275.27C243.18 274.969 243.319 274.573 243.319 274.081C243.319 273.534 243.172 273.11 242.879 272.809C242.593 272.499 242.201 272.345 241.701 272.345C241.202 272.345 240.806 272.503 240.512 272.82C240.227 273.13 240.084 273.538 240.084 274.045C240.084 274.529 240.223 274.929 240.5 275.247C240.786 275.556 241.214 275.71 241.785 275.71ZM247.598 275.556C246.773 275.143 246.361 274.493 246.361 273.605C246.361 273.177 246.468 272.785 246.682 272.428C246.896 272.071 247.217 271.79 247.645 271.584C248.073 271.369 248.597 271.262 249.215 271.262C249.825 271.262 250.345 271.369 250.773 271.584C251.209 271.79 251.534 272.071 251.748 272.428C251.962 272.785 252.069 273.177 252.069 273.605C252.069 274.049 251.954 274.442 251.724 274.783C251.502 275.116 251.205 275.373 250.832 275.556C251.284 275.722 251.641 275.996 251.903 276.376C252.164 276.749 252.295 277.189 252.295 277.696C252.295 278.212 252.164 278.668 251.903 279.064C251.641 279.461 251.276 279.766 250.809 279.98C250.341 280.194 249.81 280.301 249.215 280.301C248.62 280.301 248.089 280.194 247.621 279.98C247.161 279.766 246.801 279.461 246.539 279.064C246.277 278.668 246.147 278.212 246.147 277.696C246.147 277.181 246.277 276.737 246.539 276.364C246.801 275.992 247.154 275.722 247.598 275.556ZM250.773 273.772C250.773 273.328 250.634 272.987 250.357 272.749C250.079 272.511 249.699 272.392 249.215 272.392C248.739 272.392 248.363 272.511 248.085 272.749C247.808 272.987 247.669 273.332 247.669 273.784C247.669 274.18 247.812 274.505 248.097 274.759C248.39 275.005 248.763 275.128 249.215 275.128C249.667 275.128 250.04 275.001 250.333 274.747C250.626 274.493 250.773 274.168 250.773 273.772ZM249.215 276.15C248.692 276.15 248.264 276.281 247.931 276.543C247.605 276.797 247.443 277.165 247.443 277.649C247.443 278.101 247.601 278.469 247.919 278.755C248.236 279.032 248.668 279.171 249.215 279.171C249.754 279.171 250.178 279.028 250.487 278.743C250.805 278.458 250.963 278.093 250.963 277.649C250.963 277.173 250.801 276.805 250.476 276.543C250.158 276.281 249.738 276.15 249.215 276.15ZM253.505 273.51C253.505 272.931 253.671 272.479 254.004 272.154C254.345 271.821 254.781 271.655 255.312 271.655C255.844 271.655 256.276 271.821 256.609 272.154C256.95 272.479 257.12 272.931 257.12 273.51C257.12 274.089 256.95 274.545 256.609 274.878C256.276 275.211 255.844 275.377 255.312 275.377C254.781 275.377 254.345 275.211 254.004 274.878C253.671 274.545 253.505 274.089 253.505 273.51ZM260.759 271.81L256.014 280.087H254.682L259.427 271.81H260.759ZM255.312 272.476C254.813 272.476 254.563 272.82 254.563 273.51C254.563 274.208 254.813 274.557 255.312 274.557C255.55 274.557 255.733 274.474 255.859 274.307C255.994 274.133 256.062 273.867 256.062 273.51C256.062 272.82 255.812 272.476 255.312 272.476ZM258.345 278.374C258.345 277.796 258.511 277.344 258.844 277.019C259.185 276.686 259.621 276.519 260.153 276.519C260.676 276.519 261.104 276.686 261.437 277.019C261.778 277.344 261.948 277.796 261.948 278.374C261.948 278.953 261.778 279.409 261.437 279.742C261.104 280.075 260.676 280.242 260.153 280.242C259.621 280.242 259.185 280.075 258.844 279.742C258.511 279.409 258.345 278.953 258.345 278.374ZM260.141 277.34C259.641 277.34 259.392 277.685 259.392 278.374C259.392 279.064 259.641 279.409 260.141 279.409C260.64 279.409 260.89 279.064 260.89 278.374C260.89 277.685 260.64 277.34 260.141 277.34Z" fill="#1B6EC2" />
        <path d="M314.546 273.427C314.459 273.062 314.3 272.789 314.07 272.606C313.84 272.424 313.519 272.333 313.107 272.333C312.481 272.333 312.013 272.575 311.704 273.058C311.394 273.534 311.232 274.327 311.216 275.437C311.422 275.088 311.723 274.818 312.12 274.628C312.516 274.438 312.944 274.343 313.404 274.343C313.927 274.343 314.387 274.458 314.784 274.688C315.188 274.91 315.501 275.235 315.723 275.663C315.953 276.091 316.068 276.602 316.068 277.197C316.068 277.752 315.957 278.247 315.735 278.684C315.521 279.12 315.2 279.465 314.772 279.718C314.344 279.964 313.828 280.087 313.226 280.087C312.409 280.087 311.767 279.909 311.299 279.552C310.839 279.187 310.514 278.676 310.324 278.018C310.142 277.359 310.05 276.539 310.05 275.556C310.05 272.654 311.073 271.203 313.119 271.203C313.912 271.203 314.534 271.417 314.986 271.845C315.446 272.273 315.715 272.801 315.795 273.427H314.546ZM313.107 275.484C312.623 275.484 312.211 275.631 311.87 275.924C311.537 276.21 311.371 276.626 311.371 277.173C311.371 277.72 311.525 278.156 311.834 278.481C312.151 278.799 312.592 278.957 313.154 278.957C313.654 278.957 314.046 278.802 314.332 278.493C314.625 278.184 314.772 277.772 314.772 277.256C314.772 276.717 314.629 276.289 314.344 275.972C314.066 275.647 313.654 275.484 313.107 275.484ZM317.514 275.639C317.514 274.267 317.744 273.197 318.204 272.428C318.672 271.651 319.473 271.262 320.607 271.262C321.74 271.262 322.537 271.651 322.997 272.428C323.465 273.197 323.699 274.267 323.699 275.639C323.699 277.027 323.465 278.113 322.997 278.898C322.537 279.675 321.74 280.063 320.607 280.063C319.473 280.063 318.672 279.675 318.204 278.898C317.744 278.113 317.514 277.027 317.514 275.639ZM322.367 275.639C322.367 274.997 322.323 274.454 322.236 274.01C322.157 273.566 321.99 273.205 321.736 272.927C321.483 272.642 321.106 272.499 320.607 272.499C320.107 272.499 319.73 272.642 319.477 272.927C319.223 273.205 319.053 273.566 318.965 274.01C318.886 274.454 318.846 274.997 318.846 275.639C318.846 276.305 318.886 276.864 318.965 277.316C319.045 277.768 319.211 278.133 319.465 278.41C319.726 278.688 320.107 278.826 320.607 278.826C321.106 278.826 321.483 278.688 321.736 278.41C321.998 278.133 322.168 277.768 322.248 277.316C322.327 276.864 322.367 276.305 322.367 275.639ZM324.919 273.51C324.919 272.931 325.086 272.479 325.419 272.154C325.76 271.821 326.196 271.655 326.727 271.655C327.258 271.655 327.69 271.821 328.023 272.154C328.364 272.479 328.535 272.931 328.535 273.51C328.535 274.089 328.364 274.545 328.023 274.878C327.69 275.211 327.258 275.377 326.727 275.377C326.196 275.377 325.76 275.211 325.419 274.878C325.086 274.545 324.919 274.089 324.919 273.51ZM332.174 271.81L327.429 280.087H326.097L330.842 271.81H332.174ZM326.727 272.476C326.227 272.476 325.978 272.82 325.978 273.51C325.978 274.208 326.227 274.557 326.727 274.557C326.965 274.557 327.147 274.474 327.274 274.307C327.409 274.133 327.476 273.867 327.476 273.51C327.476 272.82 327.226 272.476 326.727 272.476ZM329.759 278.374C329.759 277.796 329.926 277.344 330.259 277.019C330.6 276.686 331.036 276.519 331.567 276.519C332.09 276.519 332.519 276.686 332.852 277.019C333.193 277.344 333.363 277.796 333.363 278.374C333.363 278.953 333.193 279.409 332.852 279.742C332.519 280.075 332.09 280.242 331.567 280.242C331.036 280.242 330.6 280.075 330.259 279.742C329.926 279.409 329.759 278.953 329.759 278.374ZM331.555 277.34C331.056 277.34 330.806 277.685 330.806 278.374C330.806 279.064 331.056 279.409 331.555 279.409C332.055 279.409 332.305 279.064 332.305 278.374C332.305 277.685 332.055 277.34 331.555 277.34Z" fill="#333435" />
        <path d="M381.057 278.279V277.256L385.053 271.524H386.694V277.102H387.8V278.279H386.694V280.087H385.362V278.279H381.057ZM385.422 272.904L382.615 277.102H385.422V272.904ZM390.386 275.556C389.562 275.143 389.15 274.493 389.15 273.605C389.15 273.177 389.257 272.785 389.471 272.428C389.685 272.071 390.006 271.79 390.434 271.584C390.862 271.369 391.385 271.262 392.004 271.262C392.614 271.262 393.134 271.369 393.562 271.584C393.998 271.79 394.323 272.071 394.537 272.428C394.751 272.785 394.858 273.177 394.858 273.605C394.858 274.049 394.743 274.442 394.513 274.783C394.291 275.116 393.994 275.373 393.621 275.556C394.073 275.722 394.43 275.996 394.692 276.376C394.953 276.749 395.084 277.189 395.084 277.696C395.084 278.212 394.953 278.668 394.692 279.064C394.43 279.461 394.065 279.766 393.597 279.98C393.13 280.194 392.598 280.301 392.004 280.301C391.409 280.301 390.878 280.194 390.41 279.98C389.95 279.766 389.59 279.461 389.328 279.064C389.066 278.668 388.935 278.212 388.935 277.696C388.935 277.181 389.066 276.737 389.328 276.364C389.59 275.992 389.942 275.722 390.386 275.556ZM393.562 273.772C393.562 273.328 393.423 272.987 393.146 272.749C392.868 272.511 392.487 272.392 392.004 272.392C391.528 272.392 391.151 272.511 390.874 272.749C390.596 272.987 390.458 273.332 390.458 273.784C390.458 274.18 390.6 274.505 390.886 274.759C391.179 275.005 391.552 275.128 392.004 275.128C392.456 275.128 392.828 275.001 393.122 274.747C393.415 274.493 393.562 274.168 393.562 273.772ZM392.004 276.15C391.481 276.15 391.052 276.281 390.719 276.543C390.394 276.797 390.232 277.165 390.232 277.649C390.232 278.101 390.39 278.469 390.707 278.755C391.025 279.032 391.457 279.171 392.004 279.171C392.543 279.171 392.967 279.028 393.276 278.743C393.593 278.458 393.752 278.093 393.752 277.649C393.752 277.173 393.59 276.805 393.264 276.543C392.947 276.281 392.527 276.15 392.004 276.15ZM396.293 273.51C396.293 272.931 396.46 272.479 396.793 272.154C397.134 271.821 397.57 271.655 398.101 271.655C398.632 271.655 399.065 271.821 399.398 272.154C399.738 272.479 399.909 272.931 399.909 273.51C399.909 274.089 399.738 274.545 399.398 274.878C399.065 275.211 398.632 275.377 398.101 275.377C397.57 275.377 397.134 275.211 396.793 274.878C396.46 274.545 396.293 274.089 396.293 273.51ZM403.548 271.81L398.803 280.087H397.471L402.216 271.81H403.548ZM398.101 272.476C397.602 272.476 397.352 272.82 397.352 273.51C397.352 274.208 397.602 274.557 398.101 274.557C398.339 274.557 398.521 274.474 398.648 274.307C398.783 274.133 398.85 273.867 398.85 273.51C398.85 272.82 398.601 272.476 398.101 272.476ZM401.134 278.374C401.134 277.796 401.3 277.344 401.633 277.019C401.974 276.686 402.41 276.519 402.942 276.519C403.465 276.519 403.893 276.686 404.226 277.019C404.567 277.344 404.737 277.796 404.737 278.374C404.737 278.953 404.567 279.409 404.226 279.742C403.893 280.075 403.465 280.242 402.942 280.242C402.41 280.242 401.974 280.075 401.633 279.742C401.3 279.409 401.134 278.953 401.134 278.374ZM402.93 277.34C402.43 277.34 402.18 277.685 402.18 278.374C402.18 279.064 402.43 279.409 402.93 279.409C403.429 279.409 403.679 279.064 403.679 278.374C403.679 277.685 403.429 277.34 402.93 277.34Z" fill="#333435" />
        <path d="M450.91 278.279V277.256L454.906 271.524H456.547V277.102H457.653V278.279H456.547V280.087H455.215V278.279H450.91ZM455.274 272.904L452.468 277.102H455.274V272.904ZM458.776 275.639C458.776 274.267 459.006 273.197 459.466 272.428C459.934 271.651 460.735 271.262 461.868 271.262C463.002 271.262 463.799 271.651 464.259 272.428C464.727 273.197 464.961 274.267 464.961 275.639C464.961 277.027 464.727 278.113 464.259 278.898C463.799 279.675 463.002 280.063 461.868 280.063C460.735 280.063 459.934 279.675 459.466 278.898C459.006 278.113 458.776 277.027 458.776 275.639ZM463.629 275.639C463.629 274.997 463.585 274.454 463.498 274.01C463.418 273.566 463.252 273.205 462.998 272.927C462.744 272.642 462.368 272.499 461.868 272.499C461.369 272.499 460.992 272.642 460.739 272.927C460.485 273.205 460.314 273.566 460.227 274.01C460.148 274.454 460.108 274.997 460.108 275.639C460.108 276.305 460.148 276.864 460.227 277.316C460.306 277.768 460.473 278.133 460.727 278.41C460.988 278.688 461.369 278.826 461.868 278.826C462.368 278.826 462.744 278.688 462.998 278.41C463.26 278.133 463.43 277.768 463.51 277.316C463.589 276.864 463.629 276.305 463.629 275.639ZM466.181 273.51C466.181 272.931 466.348 272.479 466.681 272.154C467.021 271.821 467.458 271.655 467.989 271.655C468.52 271.655 468.952 271.821 469.285 272.154C469.626 272.479 469.796 272.931 469.796 273.51C469.796 274.089 469.626 274.545 469.285 274.878C468.952 275.211 468.52 275.377 467.989 275.377C467.458 275.377 467.021 275.211 466.681 274.878C466.348 274.545 466.181 274.089 466.181 273.51ZM473.436 271.81L468.69 280.087H467.358L472.104 271.81H473.436ZM467.989 272.476C467.489 272.476 467.239 272.82 467.239 273.51C467.239 274.208 467.489 274.557 467.989 274.557C468.227 274.557 468.409 274.474 468.536 274.307C468.671 274.133 468.738 273.867 468.738 273.51C468.738 272.82 468.488 272.476 467.989 272.476ZM471.021 278.374C471.021 277.796 471.188 277.344 471.521 277.019C471.862 276.686 472.298 276.519 472.829 276.519C473.352 276.519 473.781 276.686 474.114 277.019C474.454 277.344 474.625 277.796 474.625 278.374C474.625 278.953 474.454 279.409 474.114 279.742C473.781 280.075 473.352 280.242 472.829 280.242C472.298 280.242 471.862 280.075 471.521 279.742C471.188 279.409 471.021 278.953 471.021 278.374ZM472.817 277.34C472.318 277.34 472.068 277.685 472.068 278.374C472.068 279.064 472.318 279.409 472.817 279.409C473.317 279.409 473.566 279.064 473.566 278.374C473.566 277.685 473.317 277.34 472.817 277.34Z" fill="#333435" />
        <path d="M203.645 49.6018V62H201.611V56.5769H195.777V62H193.744V49.6018H195.777V54.9178H201.611V49.6018H203.645ZM207.357 50.8683C206.988 50.8683 206.679 50.7435 206.429 50.4937C206.179 50.244 206.054 49.9348 206.054 49.5661C206.054 49.1974 206.179 48.8882 206.429 48.6384C206.679 48.3887 206.988 48.2638 207.357 48.2638C207.713 48.2638 208.017 48.3887 208.266 48.6384C208.516 48.8882 208.641 49.1974 208.641 49.5661C208.641 49.9348 208.516 50.244 208.266 50.4937C208.017 50.7435 207.713 50.8683 207.357 50.8683ZM208.356 52.1706V62H206.322V52.1706H208.356ZM214.986 52.0101C215.747 52.0101 216.419 52.1647 217.002 52.4739C217.596 52.7712 218.06 53.1458 218.393 53.5977V52.1706H220.445V62.1606C220.445 63.0644 220.254 63.8672 219.874 64.5688C219.493 65.2824 218.94 65.8414 218.215 66.2457C217.501 66.6501 216.645 66.8523 215.646 66.8523C214.314 66.8523 213.208 66.5371 212.328 65.9068C211.448 65.2884 210.948 64.444 210.829 63.3736H212.845C213 63.885 213.327 64.2953 213.826 64.6045C214.338 64.9256 214.944 65.0862 215.646 65.0862C216.466 65.0862 217.127 64.8364 217.626 64.3369C218.137 63.8374 218.393 63.112 218.393 62.1606V60.5193C218.048 60.9832 217.578 61.3756 216.984 61.6967C216.401 62.0059 215.735 62.1606 214.986 62.1606C214.13 62.1606 213.345 61.9465 212.631 61.5183C211.929 61.0783 211.37 60.4718 210.954 59.6987C210.55 58.9138 210.348 58.0278 210.348 57.0407C210.348 56.0536 210.55 55.1795 210.954 54.4183C211.37 53.6572 211.929 53.0685 212.631 52.6523C213.345 52.2241 214.13 52.0101 214.986 52.0101ZM218.393 57.0764C218.393 56.3985 218.25 55.8098 217.965 55.3103C217.691 54.8108 217.329 54.4302 216.877 54.1686C216.425 53.907 215.937 53.7761 215.414 53.7761C214.891 53.7761 214.403 53.907 213.951 54.1686C213.499 54.4183 213.131 54.793 212.845 55.2925C212.572 55.7801 212.435 56.3628 212.435 57.0407C212.435 57.7186 212.572 58.3132 212.845 58.8246C213.131 59.336 213.499 59.7285 213.951 60.002C214.415 60.2637 214.903 60.3945 215.414 60.3945C215.937 60.3945 216.425 60.2637 216.877 60.002C217.329 59.7404 217.691 59.3598 217.965 58.8603C218.25 58.3489 218.393 57.7543 218.393 57.0764ZM228.2 52.0101C228.949 52.0101 229.615 52.1706 230.198 52.4917C230.793 52.8128 231.256 53.2885 231.589 53.9188C231.934 54.5492 232.107 55.3103 232.107 56.2023V62H230.091V56.5055C230.091 55.6255 229.871 54.9535 229.431 54.4897C228.991 54.014 228.39 53.7761 227.629 53.7761C226.868 53.7761 226.261 54.014 225.809 54.4897C225.369 54.9535 225.149 55.6255 225.149 56.5055V62H223.116V48.799H225.149V53.3123C225.494 52.8961 225.928 52.575 226.452 52.349C226.987 52.123 227.57 52.0101 228.2 52.0101ZM250.02 49.6018L245.364 62H243.01L238.336 49.6018H240.512L244.187 59.9128L247.88 49.6018H250.02ZM255.985 62.1606C255.057 62.1606 254.219 61.9524 253.469 61.5362C252.72 61.108 252.132 60.5134 251.703 59.7523C251.275 58.9792 251.061 58.0873 251.061 57.0764C251.061 56.0774 251.281 55.1914 251.721 54.4183C252.161 53.6453 252.762 53.0507 253.523 52.6344C254.284 52.2182 255.134 52.0101 256.074 52.0101C257.014 52.0101 257.864 52.2182 258.625 52.6344C259.386 53.0507 259.987 53.6453 260.427 54.4183C260.867 55.1914 261.087 56.0774 261.087 57.0764C261.087 58.0754 260.861 58.9614 260.409 59.7344C259.957 60.5075 259.339 61.108 258.554 61.5362C257.781 61.9524 256.924 62.1606 255.985 62.1606ZM255.985 60.3945C256.508 60.3945 256.996 60.2696 257.448 60.0198C257.911 59.7701 258.286 59.3955 258.571 58.896C258.857 58.3965 259 57.7899 259 57.0764C259 56.3628 258.863 55.7622 258.589 55.2746C258.316 54.7751 257.953 54.4005 257.501 54.1508C257.049 53.901 256.562 53.7761 256.038 53.7761C255.515 53.7761 255.027 53.901 254.575 54.1508C254.135 54.4005 253.785 54.7751 253.523 55.2746C253.261 55.7622 253.131 56.3628 253.131 57.0764C253.131 58.1348 253.398 58.9554 253.933 59.5382C254.48 60.109 255.164 60.3945 255.985 60.3945ZM265.131 48.799V62H263.097V48.799H265.131ZM276.703 52.1706V62H274.669V60.8405C274.348 61.2448 273.926 61.5659 273.402 61.8038C272.891 62.0297 272.344 62.1427 271.761 62.1427C270.988 62.1427 270.292 61.9822 269.674 61.6611C269.067 61.3399 268.586 60.8642 268.229 60.2339C267.884 59.6036 267.712 58.8425 267.712 57.9505V52.1706H269.728V57.6472C269.728 58.5273 269.948 59.2052 270.388 59.6809C270.828 60.1447 271.428 60.3766 272.189 60.3766C272.95 60.3766 273.551 60.1447 273.991 59.6809C274.443 59.2052 274.669 58.5273 274.669 57.6472V52.1706H276.703ZM291.285 52.0101C292.058 52.0101 292.747 52.1706 293.354 52.4917C293.972 52.8128 294.454 53.2885 294.799 53.9188C295.156 54.5492 295.334 55.3103 295.334 56.2023V62H293.318V56.5055C293.318 55.6255 293.098 54.9535 292.658 54.4897C292.218 54.014 291.618 53.7761 290.857 53.7761C290.095 53.7761 289.489 54.014 289.037 54.4897C288.597 54.9535 288.377 55.6255 288.377 56.5055V62H286.361V56.5055C286.361 55.6255 286.141 54.9535 285.701 54.4897C285.261 54.014 284.66 53.7761 283.899 53.7761C283.138 53.7761 282.532 54.014 282.08 54.4897C281.64 54.9535 281.42 55.6255 281.42 56.5055V62H279.386V52.1706H281.42V53.2945C281.753 52.8901 282.175 52.575 282.686 52.349C283.198 52.123 283.745 52.0101 284.327 52.0101C285.112 52.0101 285.814 52.1765 286.432 52.5095C287.051 52.8425 287.527 53.3242 287.86 53.9545C288.157 53.3599 288.621 52.8901 289.251 52.5452C289.881 52.1884 290.559 52.0101 291.285 52.0101ZM306.931 56.8445C306.931 57.2131 306.907 57.5461 306.859 57.8435H299.349C299.409 58.6284 299.7 59.2587 300.223 59.7344C300.746 60.2101 301.389 60.448 302.15 60.448C303.244 60.448 304.017 59.9901 304.469 59.0744H306.663C306.366 59.9782 305.825 60.7215 305.04 61.3043C304.267 61.8751 303.303 62.1606 302.15 62.1606C301.21 62.1606 300.366 61.9524 299.617 61.5362C298.879 61.108 298.297 60.5134 297.868 59.7523C297.452 58.9792 297.244 58.0873 297.244 57.0764C297.244 56.0655 297.446 55.1795 297.851 54.4183C298.267 53.6453 298.844 53.0507 299.581 52.6344C300.33 52.2182 301.187 52.0101 302.15 52.0101C303.077 52.0101 303.904 52.2122 304.629 52.6166C305.355 53.0209 305.92 53.5918 306.324 54.3291C306.729 55.0546 306.931 55.893 306.931 56.8445ZM304.808 56.2023C304.796 55.453 304.528 54.8524 304.005 54.4005C303.482 53.9486 302.834 53.7226 302.061 53.7226C301.359 53.7226 300.758 53.9486 300.259 54.4005C299.759 54.8405 299.462 55.4411 299.367 56.2023H304.808Z" fill="#1B6EC2" />
    </g>
    <defs>
        <clipPath id="clip0_430_4742">
            <rect width="498.011" height="289.887" fill="white" />
        </clipPath>
    </defs>
</svg>