<svg width="438" height="324" viewBox="0 0 438 324" fill="none"
    xmlns="http://www.w3.org/2000/svg">
    <path d="M438 284.515H0V284.732H438V284.515Z" fill="#EBEBEB"/>
    <path d="M394.112 298.482H365.099V298.699H394.112V298.482Z" fill="#EBEBEB"/>
    <path d="M290.149 300.844H282.537V301.061H290.149V300.844Z" fill="#EBEBEB"/>
    <path d="M364.224 290.427H347.413V290.644H364.224V290.427Z" fill="#EBEBEB"/>
    <path d="M83.79 291.885H45.9556V292.102H83.79V291.885Z" fill="#EBEBEB"/>
    <path d="M97.1393 291.885H91.5942V292.102H97.1393V291.885Z" fill="#EBEBEB"/>
    <path d="M197.232 295.549H115.168V295.766H197.232V295.549Z" fill="#EBEBEB"/>
    <path d="M207.612 245.795H38.4649C37.1398 245.792 35.8698 245.269 34.9336 244.34C33.9975 243.41 33.4717 242.151 33.4717 240.837V5.19403C33.4832 3.88835 34.0141 2.6399 34.949 1.71986C35.8839 0.799828 37.1473 0.28251 38.4649 0.280273H207.612C208.938 0.280273 210.211 0.802545 211.149 1.73219C212.087 2.66184 212.614 3.92272 212.614 5.23744V240.837C212.614 242.152 212.087 243.413 211.149 244.343C210.211 245.272 208.938 245.795 207.612 245.795ZM38.4649 0.453905C37.1979 0.456205 35.9836 0.956623 35.0885 1.84532C34.1934 2.73402 33.6907 3.93837 33.6907 5.19403V240.837C33.6907 242.093 34.1934 243.297 35.0885 244.186C35.9836 245.075 37.1979 245.575 38.4649 245.578H207.612C208.88 245.575 210.095 245.075 210.991 244.187C211.888 243.298 212.392 242.094 212.395 240.837V5.19403C212.392 3.93758 211.888 2.73324 210.991 1.84479C210.095 0.956341 208.88 0.4562 207.612 0.453905H38.4649Z" fill="#EBEBEB"/>
    <path d="M397.1 245.795H227.944C226.618 245.792 225.348 245.269 224.41 244.34C223.472 243.411 222.945 242.151 222.942 240.837V5.19403C222.956 3.88756 223.489 2.63912 224.425 1.71932C225.362 0.799525 226.626 0.282486 227.944 0.280273H397.1C398.416 0.284792 399.677 0.803119 400.61 1.72291C401.543 2.6427 402.073 3.88985 402.084 5.19403V240.837C402.084 242.149 401.56 243.407 400.626 244.337C399.691 245.266 398.424 245.79 397.1 245.795ZM227.944 0.453905C226.677 0.4562 225.461 0.956341 224.565 1.84479C223.668 2.73324 223.164 3.93758 223.161 5.19403V240.837C223.164 242.094 223.668 243.298 224.565 244.187C225.461 245.075 226.677 245.575 227.944 245.578H397.1C398.368 245.575 399.583 245.075 400.479 244.187C401.376 243.298 401.881 242.094 401.883 240.837V5.19403C401.881 3.93758 401.376 2.73324 400.479 1.84479C399.583 0.956341 398.368 0.4562 397.1 0.453905H227.944Z" fill="#EBEBEB"/>
    <path d="M226.104 237.608H288.625V60.0359H226.104L226.104 237.608Z" fill="#FAFAFA"/>
    <path d="M224.651 66.3389L290.062 66.3389V57.6226L224.651 57.6226V66.3389Z" fill="#F0F0F0"/>
    <path d="M224.651 71.6689L290.062 71.6689V67.3108L224.651 67.3108V71.6689Z" fill="#F0F0F0"/>
    <path d="M224.651 78.1279L290.062 78.1279V73.7698L224.651 73.7698V78.1279Z" fill="#F0F0F0"/>
    <path d="M224.651 84.5957L290.062 84.5957V80.2376L224.651 80.2376V84.5957Z" fill="#F0F0F0"/>
    <path d="M224.651 91.0635L290.062 91.0635V86.7053L224.651 86.7053V91.0635Z" fill="#F0F0F0"/>
    <path d="M224.651 97.5225L290.062 97.5225V93.1643L224.651 93.1643V97.5225Z" fill="#F0F0F0"/>
    <path d="M224.651 103.99L290.062 103.99V99.6321L224.651 99.6321V103.99Z" fill="#F0F0F0"/>
    <path d="M224.651 110.467L290.062 110.467V106.109L224.651 106.109V110.467Z" fill="#F0F0F0"/>
    <path d="M224.651 116.926L290.062 116.926V112.568L224.651 112.568V116.926Z" fill="#F0F0F0"/>
    <path d="M224.651 123.394L290.062 123.394V119.035L224.651 119.035V123.394Z" fill="#F0F0F0"/>
    <path d="M224.651 129.853H290.062V125.494L224.651 125.494V129.853Z" fill="#F0F0F0"/>
    <path d="M224.651 136.32H290.062V131.962H224.651V136.32Z" fill="#F0F0F0"/>
    <path d="M224.651 142.797H290.062V138.439H224.651V142.797Z" fill="#F0F0F0"/>
    <path d="M224.651 149.256H290.062V144.898H224.651V149.256Z" fill="#F0F0F0"/>
    <path d="M224.651 155.724H290.062V151.365H224.651V155.724Z" fill="#F0F0F0"/>
    <path d="M224.651 162.191H290.062V157.833H224.651V162.191Z" fill="#F0F0F0"/>
    <path d="M224.651 168.65H290.062V164.292H224.651V168.65Z" fill="#F0F0F0"/>
    <path d="M224.651 175.118H290.062V170.76H224.651V175.118Z" fill="#F0F0F0"/>
    <path d="M224.651 181.595H290.062V177.237H224.651V181.595Z" fill="#F0F0F0"/>
    <path d="M224.651 188.054H290.062V183.696H224.651V188.054Z" fill="#F0F0F0"/>
    <path d="M224.651 194.521H290.062V190.163H224.651V194.521Z" fill="#F0F0F0"/>
    <path d="M224.651 200.989H290.062V196.631H224.651V200.989Z" fill="#F0F0F0"/>
    <path d="M224.651 207.448H290.062V203.09H224.651V207.448Z" fill="#F0F0F0"/>
    <path d="M224.651 213.916H290.062V209.558H224.651V213.916Z" fill="#F0F0F0"/>
    <path d="M224.651 220.393H290.062V216.034H224.651V220.393Z" fill="#F0F0F0"/>
    <path d="M224.651 226.852H290.062V222.493H224.651V226.852Z" fill="#F0F0F0"/>
    <path d="M224.651 233.319H290.062V228.961H224.651V233.319Z" fill="#F0F0F0"/>
    <path d="M224.651 239.778H290.062V235.42H224.651V239.778Z" fill="#F0F0F0"/>
    <path d="M304.244 237.608H366.764V60.0359H304.244V237.608Z" fill="#FAFAFA"/>
    <path d="M302.798 66.3389L368.209 66.3389V57.6226L302.798 57.6226V66.3389Z" fill="#F0F0F0"/>
    <path d="M302.798 71.6689L368.209 71.6689V67.3108L302.798 67.3108V71.6689Z" fill="#F0F0F0"/>
    <path d="M302.798 78.1279L368.209 78.1279V73.7698L302.798 73.7698V78.1279Z" fill="#F0F0F0"/>
    <path d="M302.798 84.5957L368.209 84.5957V80.2376L302.798 80.2376V84.5957Z" fill="#F0F0F0"/>
    <path d="M302.798 91.0635L368.209 91.0635V86.7053L302.798 86.7053V91.0635Z" fill="#F0F0F0"/>
    <path d="M302.798 97.5225L368.209 97.5225V93.1643L302.798 93.1643V97.5225Z" fill="#F0F0F0"/>
    <path d="M302.798 103.99L368.209 103.99V99.6321L302.798 99.6321V103.99Z" fill="#F0F0F0"/>
    <path d="M302.798 110.467L368.209 110.467V106.109L302.798 106.109V110.467Z" fill="#F0F0F0"/>
    <path d="M302.798 116.926L368.209 116.926V112.568L302.798 112.568V116.926Z" fill="#F0F0F0"/>
    <path d="M302.798 123.394L368.209 123.394V119.035L302.798 119.035V123.394Z" fill="#F0F0F0"/>
    <path d="M302.798 129.853H368.209V125.494L302.798 125.494V129.853Z" fill="#F0F0F0"/>
    <path d="M302.798 136.32H368.209V131.962H302.798V136.32Z" fill="#F0F0F0"/>
    <path d="M302.798 142.797H368.209V138.439H302.798V142.797Z" fill="#F0F0F0"/>
    <path d="M302.798 149.256H368.209V144.898H302.798V149.256Z" fill="#F0F0F0"/>
    <path d="M302.798 155.724H368.209V151.365H302.798V155.724Z" fill="#F0F0F0"/>
    <path d="M302.798 162.191H368.209V157.833H302.798V162.191Z" fill="#F0F0F0"/>
    <path d="M302.798 168.65H368.209V164.292H302.798V168.65Z" fill="#F0F0F0"/>
    <path d="M302.798 175.118H368.209V170.76H302.798V175.118Z" fill="#F0F0F0"/>
    <path d="M302.798 181.595H368.209V177.237H302.798V181.595Z" fill="#F0F0F0"/>
    <path d="M302.798 188.054H368.209V183.696H302.798V188.054Z" fill="#F0F0F0"/>
    <path d="M302.798 194.521H368.209V190.163H302.798V194.521Z" fill="#F0F0F0"/>
    <path d="M302.798 200.989H368.209V196.631H302.798V200.989Z" fill="#F0F0F0"/>
    <path d="M302.798 207.448H368.209V203.09H302.798V207.448Z" fill="#F0F0F0"/>
    <path d="M302.798 213.916H368.209V209.558H302.798V213.916Z" fill="#F0F0F0"/>
    <path d="M302.798 220.393H368.209V216.034H302.798V220.393Z" fill="#F0F0F0"/>
    <path d="M302.798 226.852H368.209V222.493H302.798V226.852Z" fill="#F0F0F0"/>
    <path d="M302.798 233.319H368.209V228.961H302.798V233.319Z" fill="#F0F0F0"/>
    <path d="M302.798 239.778H368.209V235.42H302.798V239.778Z" fill="#F0F0F0"/>
    <path d="M147.956 238.693H210.477L210.477 61.1209H147.956L147.956 238.693Z" fill="#FAFAFA"/>
    <path d="M146.511 67.4316L211.922 67.4316V58.7154L146.511 58.7154V67.4316Z" fill="#F0F0F0"/>
    <path d="M146.511 69.1953L211.922 69.1953V68.3966L146.511 68.3966V69.1953Z" fill="#F0F0F0"/>
    <path d="M146.511 71.0176L211.922 71.0176V70.2189L146.511 70.2189V71.0176Z" fill="#F0F0F0"/>
    <path d="M146.511 72.833L211.922 72.833V72.0343L146.511 72.0343V72.833Z" fill="#F0F0F0"/>
    <path d="M146.511 74.6465L211.922 74.6465V73.8478L146.511 73.8478V74.6465Z" fill="#F0F0F0"/>
    <path d="M146.511 76.4785L211.922 76.4785V75.6798L146.511 75.6798V76.4785Z" fill="#F0F0F0"/>
    <path d="M146.511 78.293L211.922 78.293V77.4943L146.511 77.4943V78.293Z" fill="#F0F0F0"/>
    <path d="M146.511 80.1162L211.922 80.1162V79.3175L146.511 79.3175V80.1162Z" fill="#F0F0F0"/>
    <path d="M146.511 81.9307L211.922 81.9307V81.132L146.511 81.132V81.9307Z" fill="#F0F0F0"/>
    <path d="M146.511 83.7539L211.922 83.7539V82.9552L146.511 82.9552V83.7539Z" fill="#F0F0F0"/>
    <path d="M146.511 85.5684L211.922 85.5684V84.7697L146.511 84.7697V85.5684Z" fill="#F0F0F0"/>
    <path d="M146.511 87.3916L211.922 87.3916V86.5929L146.511 86.5929V87.3916Z" fill="#F0F0F0"/>
    <path d="M146.511 89.2051L211.922 89.2051V88.4064L146.511 88.4064V89.2051Z" fill="#F0F0F0"/>
    <path d="M146.511 91.0283L211.922 91.0283V90.2296L146.511 90.2296V91.0283Z" fill="#F0F0F0"/>
    <path d="M146.511 92.8516L211.922 92.8516V92.0529L146.511 92.0529V92.8516Z" fill="#F0F0F0"/>
    <path d="M146.511 94.666L211.922 94.666V93.8673L146.511 93.8673V94.666Z" fill="#F0F0F0"/>
    <path d="M146.511 96.4893L211.922 96.4893V95.6906L146.511 95.6906V96.4893Z" fill="#F0F0F0"/>
    <path d="M146.511 98.3037L211.922 98.3037V97.505L146.511 97.505V98.3037Z" fill="#F0F0F0"/>
    <path d="M146.511 100.127L211.922 100.127V99.3283L146.511 99.3283V100.127Z" fill="#F0F0F0"/>
    <path d="M69.8173 238.693H132.337L132.337 61.1209H69.8173L69.8173 238.693Z" fill="#FAFAFA"/>
    <path d="M68.3635 67.4316L133.774 67.4316V58.7154L68.3635 58.7154V67.4316Z" fill="#F0F0F0"/>
    <path d="M68.3635 69.1953L133.774 69.1953V68.3966L68.3635 68.3966V69.1953Z" fill="#F0F0F0"/>
    <path d="M68.3635 71.0176L133.774 71.0176V70.2189L68.3635 70.2189V71.0176Z" fill="#F0F0F0"/>
    <path d="M68.3635 72.833L133.774 72.833V72.0343L68.3635 72.0343V72.833Z" fill="#F0F0F0"/>
    <path d="M68.3635 74.6465L133.774 74.6465V73.8478L68.3635 73.8478V74.6465Z" fill="#F0F0F0"/>
    <path d="M68.3635 76.4785L133.774 76.4785V75.6798L68.3635 75.6798V76.4785Z" fill="#F0F0F0"/>
    <path d="M68.3635 78.293L133.774 78.293V77.4943L68.3635 77.4943V78.293Z" fill="#F0F0F0"/>
    <path d="M68.3635 80.1162L133.774 80.1162V79.3175L68.3635 79.3175V80.1162Z" fill="#F0F0F0"/>
    <path d="M68.3635 81.9307L133.774 81.9307V81.132L68.3635 81.132V81.9307Z" fill="#F0F0F0"/>
    <path d="M68.3635 83.7539L133.774 83.7539V82.9552L68.3635 82.9552V83.7539Z" fill="#F0F0F0"/>
    <path d="M68.3635 85.5684L133.774 85.5684V84.7697L68.3635 84.7697V85.5684Z" fill="#F0F0F0"/>
    <path d="M68.3635 87.3916L133.774 87.3916V86.5929L68.3635 86.5929V87.3916Z" fill="#F0F0F0"/>
    <path d="M68.3635 89.2051L133.774 89.2051V88.4064L68.3635 88.4064V89.2051Z" fill="#F0F0F0"/>
    <path d="M68.3635 91.0283L133.774 91.0283V90.2296L68.3635 90.2296V91.0283Z" fill="#F0F0F0"/>
    <path d="M68.3635 92.8516L133.774 92.8516V92.0529L68.3635 92.0529V92.8516Z" fill="#F0F0F0"/>
    <path d="M68.3635 94.666L133.774 94.666V93.8673L68.3635 93.8673V94.666Z" fill="#F0F0F0"/>
    <path d="M68.3635 96.4893L133.774 96.4893V95.6906L68.3635 95.6906V96.4893Z" fill="#F0F0F0"/>
    <path d="M68.3635 98.3037L133.774 98.3037V97.505L68.3635 97.505V98.3037Z" fill="#F0F0F0"/>
    <path d="M68.3635 100.127L133.774 100.127V99.3283L68.3635 99.3283V100.127Z" fill="#F0F0F0"/>
    <path d="M231.22 36.5775C232.906 29.4985 228.482 22.4053 221.339 20.7345C214.196 19.0637 207.039 23.4479 205.353 30.527C203.667 37.606 208.091 44.6992 215.234 46.37C222.377 48.0408 229.534 43.6566 231.22 36.5775Z" fill="#F0F0F0"/>
    <path d="M229.454 35.3644C230.454 29.2591 226.271 23.5065 220.111 22.5154C213.95 21.5244 208.146 25.6703 207.146 31.7756C206.146 37.8808 210.329 43.6335 216.489 44.6245C222.65 45.6155 228.454 41.4696 229.454 35.3644Z" fill="#FAFAFA"/>
    <path d="M217.756 34.573C217.606 34.5752 217.459 34.5394 217.327 34.4689L212.071 31.5258C211.869 31.4127 211.721 31.225 211.658 31.0036C211.596 30.7823 211.625 30.5455 211.738 30.3451C211.795 30.2449 211.871 30.1568 211.962 30.0859C212.053 30.015 212.157 29.9627 212.269 29.932C212.38 29.9013 212.497 29.8929 212.612 29.9072C212.727 29.9214 212.838 29.9582 212.938 30.0152L216.863 32.2203V25.8828C216.863 25.6526 216.955 25.4317 217.119 25.2689C217.284 25.1061 217.506 25.0146 217.739 25.0146C217.971 25.0146 218.194 25.1061 218.358 25.2689C218.522 25.4317 218.615 25.6526 218.615 25.8828V33.6962C218.615 33.8492 218.575 33.9996 218.498 34.1322C218.421 34.2649 218.31 34.375 218.177 34.4515C218.049 34.5266 217.904 34.5685 217.756 34.573Z" fill="#E0E0E0"/>
    <path d="M219 323.72C312.804 323.72 388.848 319.321 388.848 313.893C388.848 308.465 312.804 304.065 219 304.065C125.196 304.065 49.1523 308.465 49.1523 313.893C49.1523 319.321 125.196 323.72 219 323.72Z" fill="#F5F5F5"/>
    <path d="M231.264 274.921C231.264 274.921 238.061 266.908 242.406 270.641C246.751 274.374 244.553 282.3 239.542 282.56C236.57 282.72 233.637 281.831 231.264 280.052V274.921Z" fill="#407BFF"/>
    <path opacity="0.2" d="M231.264 274.921C231.264 274.921 238.061 266.908 242.406 270.641C246.751 274.374 244.553 282.3 239.542 282.56C236.57 282.72 233.637 281.831 231.264 280.052V274.921Z" fill="white"/>
    <path d="M203.591 254.597C203.591 254.597 197.888 248.677 194.358 249.684C190.828 250.691 191.187 264.833 202.146 259.103L203.591 254.597Z" fill="#407BFF"/>
    <path opacity="0.3" d="M203.591 254.597C203.591 254.597 197.888 248.677 194.358 249.684C190.828 250.691 191.187 264.833 202.146 259.103L203.591 254.597Z" fill="white"/>
    <path d="M223.967 298.778C223.967 298.778 242.713 273.367 227.471 268.219C212.228 263.071 209.539 288.664 213.893 295.792C218.247 302.919 223.967 298.778 223.967 298.778Z" fill="#407BFF"/>
    <path d="M215.277 246.749C215.277 246.749 203.644 219.993 220.866 219.185C238.088 218.378 239.971 245.716 220.148 249.684L215.277 246.749Z" fill="#407BFF"/>
    <path opacity="0.3" d="M223.967 298.778C223.967 298.778 242.713 273.367 227.471 268.219C212.228 263.071 209.539 288.664 213.893 295.792C218.247 302.919 223.967 298.778 223.967 298.778Z" fill="white"/>
    <path opacity="0.3" d="M215.277 246.749C215.277 246.749 203.644 219.993 220.866 219.185C238.088 218.378 239.971 245.716 220.148 249.684L215.277 246.749Z" fill="white"/>
    <path d="M219.402 268.654C219.402 268.654 225.053 245.031 214.146 243.147C203.24 241.263 192.553 262.611 215.022 273.342C215.075 273.342 218.929 270.972 219.402 268.654Z" fill="#407BFF"/>
    <path opacity="0.2" d="M219.402 268.654C219.402 268.654 225.053 245.031 214.146 243.147C203.24 241.263 192.553 262.611 215.022 273.342C215.075 273.342 218.929 270.972 219.402 268.654Z" fill="white"/>
    <path d="M237.457 295.175H205.991L208.619 315.134H234.829L237.457 295.175Z" fill="#263238"/>
    <path d="M221.093 244.84C221.794 244.111 222.477 243.381 223.099 242.591C223.746 241.83 224.348 241.033 224.904 240.204C226.028 238.573 226.97 236.827 227.716 234.995C228.439 233.169 228.865 231.241 228.977 229.283V227.807C228.933 227.312 228.855 226.826 228.802 226.331C228.802 226.088 228.802 225.836 228.732 225.593L228.548 224.872C228.425 224.386 228.32 223.9 228.206 223.396C229.096 225.239 229.577 227.249 229.617 229.291C229.639 231.35 229.259 233.393 228.495 235.308C227.726 237.203 226.688 238.981 225.412 240.586C224.177 242.194 222.724 243.626 221.093 244.84Z" fill="#407BFF"/>
    <path d="M225.219 221.877C223.42 222.572 221.783 223.623 220.408 224.967C219.033 226.31 217.948 227.917 217.221 229.69L216.722 231.027C216.573 231.479 216.494 231.948 216.372 232.408C216.15 233.34 215.986 234.285 215.881 235.238C215.785 236.193 215.785 237.156 215.741 238.129C215.697 239.101 215.82 240.065 215.82 241.054C215.618 240.091 215.478 239.127 215.312 238.155C215.145 237.183 215.198 236.184 215.207 235.194C215.268 233.195 215.677 231.222 216.416 229.36C217.196 227.5 218.394 225.84 219.92 224.507C220.68 223.852 221.514 223.286 222.407 222.823C223.297 222.383 224.243 222.065 225.219 221.877Z" fill="#407BFF"/>
    <path d="M212.045 244.84C210.871 245.439 209.827 246.259 208.97 247.253C208.104 248.218 207.422 249.33 206.955 250.535C206.48 251.727 206.184 252.982 206.079 254.259C206.053 254.574 206.053 254.891 206.079 255.206C206.079 255.518 206.079 255.839 206.079 256.152C206.157 256.779 206.292 257.398 206.482 258.001C207.293 260.463 208.545 262.76 210.179 264.781C210.969 265.831 211.814 266.84 212.71 267.803C213.586 268.792 214.515 269.721 215.478 270.641C213.323 269.066 211.367 267.238 209.653 265.198C208.78 264.176 207.989 263.087 207.288 261.942C206.592 260.779 206.04 259.538 205.641 258.244C205.447 257.588 205.309 256.918 205.229 256.239C205.207 255.892 205.207 255.544 205.229 255.197C205.216 254.855 205.234 254.512 205.282 254.173C205.426 252.825 205.786 251.509 206.351 250.274C206.889 249.04 207.67 247.924 208.648 246.991C209.625 246.058 210.78 245.327 212.045 244.84Z" fill="#407BFF"/>
    <path d="M215.277 246.749C215.128 247.661 214.988 248.563 214.909 249.475C214.802 250.377 214.744 251.284 214.734 252.192C214.721 253.087 214.78 253.981 214.909 254.866C215.001 255.722 215.279 256.549 215.723 257.288C215.986 257.69 216.217 258.111 216.415 258.547C216.611 258.988 216.769 259.444 216.889 259.91C217.104 260.827 217.222 261.764 217.239 262.706C217.285 264.562 217.082 266.416 216.634 268.219C216.634 267.298 216.713 266.387 216.696 265.466C216.704 264.559 216.661 263.652 216.564 262.749C216.475 260.976 215.929 259.254 214.979 257.749C214.49 256.898 214.191 255.954 214.103 254.979C214.002 254.041 214.002 253.095 214.103 252.158C214.254 250.312 214.649 248.493 215.277 246.749Z" fill="#407BFF"/>
    <path d="M222.925 270.642C222.511 270.889 222.17 271.239 221.935 271.657C221.689 272.066 221.475 272.492 221.295 272.934C220.93 273.813 220.623 274.715 220.375 275.633C219.867 277.474 219.421 279.338 219.035 281.224C218.632 283.1 218.282 284.992 217.923 286.876C217.739 287.822 217.572 288.769 217.415 289.724C217.257 290.679 217.082 291.616 216.95 292.58C216.9 290.639 216.999 288.698 217.248 286.772C217.458 284.845 217.774 282.935 218.168 281.033C218.557 279.131 219.078 277.257 219.727 275.425C220.056 274.501 220.451 273.602 220.91 272.734C221.153 272.306 221.431 271.9 221.742 271.518C222.041 271.118 222.452 270.813 222.925 270.642Z" fill="#407BFF"/>
    <path d="M228.242 271.466C229.057 273.102 229.588 274.863 229.81 276.675C230.042 278.503 229.971 280.356 229.599 282.161C229.521 282.615 229.407 283.062 229.258 283.498C229.118 283.933 229.004 284.367 228.829 284.809C228.122 286.509 227.146 288.086 225.938 289.48C225.639 289.822 225.317 290.144 224.974 290.444C224.641 290.756 224.308 291.069 223.967 291.364C225.125 289.998 226.132 288.514 226.971 286.936C227.804 285.384 228.394 283.715 228.723 281.988C229.085 280.262 229.214 278.495 229.109 276.736C229.016 274.953 228.725 273.185 228.242 271.466Z" fill="#407BFF"/>
    <path d="M199.167 257.489C198.672 257.684 198.14 257.77 197.608 257.741C197.066 257.72 196.532 257.602 196.031 257.393C195.523 257.182 195.069 256.861 194.7 256.456C194.338 256.05 194.101 255.55 194.017 255.015C194.374 255.356 194.758 255.669 195.164 255.952C195.548 256.206 195.956 256.421 196.382 256.595C197.29 256.952 198.22 257.251 199.167 257.489Z" fill="#407BFF"/>
    <path d="M200.332 253.583L198.939 252.914C198.506 252.714 198.058 252.546 197.599 252.411C197.166 252.29 196.718 252.228 196.268 252.228C195.777 252.268 195.294 252.373 194.831 252.541C195.139 252.071 195.604 251.723 196.145 251.56C196.702 251.412 197.288 251.412 197.844 251.56C198.375 251.718 198.869 251.977 199.299 252.324C199.732 252.664 200.085 253.093 200.332 253.583Z" fill="#407BFF"/>
    <path d="M234.409 276.11C234.727 275.444 235.15 274.832 235.661 274.296C236.171 273.743 236.762 273.269 237.413 272.89C238.09 272.471 238.877 272.263 239.673 272.291C240.066 272.306 240.45 272.408 240.797 272.59C241.144 272.772 241.446 273.029 241.68 273.341C241.068 273.025 240.376 272.896 239.691 272.968C239.033 273.06 238.403 273.291 237.843 273.645C236.642 274.388 235.495 275.212 234.409 276.11Z" fill="#407BFF"/>
    <path d="M234.409 280.052C236.094 280.027 237.776 279.902 239.446 279.679C240.258 279.573 241.047 279.329 241.776 278.958C242.494 278.577 243.06 277.965 243.379 277.222C243.371 277.676 243.257 278.123 243.044 278.525C242.831 278.928 242.526 279.275 242.153 279.54C241.411 280.076 240.547 280.422 239.638 280.547C238.769 280.683 237.887 280.712 237.01 280.634C236.12 280.559 235.245 280.364 234.409 280.052Z" fill="#407BFF"/>
    <path d="M318.364 109.269H258.437V192.264H318.364V109.269Z" fill="#407BFF"/>
    <path d="M359.02 192.264H318.365V109.269L359.02 123.749V192.264Z" fill="#407BFF"/>
    <path opacity="0.2" d="M359.02 192.264H318.365V109.269L359.02 123.749V192.264Z" fill="white"/>
    <path d="M359.019 181.091H258.437V192.264H359.019V181.091Z" fill="#263238"/>
    <path opacity="0.3" d="M359.019 181.091H258.437V192.264H359.019V181.091Z" fill="white"/>
    <path d="M316.298 168.164L327.869 154.777L347.422 171.411L330.489 184.173L306.057 183.861L293.977 164.865L316.298 168.164Z" fill="#407BFF"/>
    <path d="M316.298 168.164L330.489 184.173L306.057 183.86L293.977 164.865L316.298 168.164Z" fill="white"/>
    <path opacity="0.8" d="M316.297 168.164L327.869 154.777L347.422 171.411L330.489 184.173L316.297 168.164Z" fill="white"/>
    <path d="M299.092 192.264H258.437V109.269L299.092 123.749V192.264Z" fill="#407BFF"/>
    <path opacity="0.6" d="M299.092 192.264H258.437V109.269L299.092 123.749V192.264Z" fill="white"/>
    <path opacity="0.5" d="M275.984 125.764L293.609 163.754L261.495 172.983L275.984 125.764Z" fill="white"/>
    <path d="M267.18 147.936L268.17 147.294L269.151 153.371L271.946 151.574L272.13 152.703L268.345 155.142L267.18 147.936Z" fill="#407BFF"/>
    <path d="M276.22 147.477L273.022 149.534C273.268 150.263 273.846 150.463 274.555 150.003C275.031 149.69 275.389 149.228 275.572 148.692L276.211 149.161C275.951 149.96 275.422 150.646 274.713 151.105C273.346 151.974 272.269 151.375 272.006 149.742C271.873 148.965 271.956 148.166 272.246 147.432C272.536 146.698 273.023 146.056 273.653 145.575C274.844 144.811 275.896 145.376 276.176 147.086C276.193 147.19 276.211 147.355 276.22 147.477ZM272.882 148.692L275.195 147.199C274.985 146.461 274.45 146.2 273.82 146.608C273.492 146.853 273.233 147.177 273.069 147.55C272.905 147.922 272.84 148.331 272.882 148.735V148.692Z" fill="#407BFF"/>
    <path d="M279.934 147.337C279.734 147.73 279.431 148.063 279.058 148.301C278.182 148.874 277.551 148.562 277.359 147.355L276.929 144.75L276.255 145.184L276.088 144.16L276.763 143.726L276.561 142.467L277.516 141.859L277.718 143.11L278.804 142.406L278.97 143.431L277.884 144.134L278.305 146.738C278.392 147.277 278.638 147.433 279.005 147.199C279.22 147.054 279.392 146.857 279.505 146.626L279.934 147.337Z" fill="#407BFF"/>
    <path d="M280.591 139.672C280.638 140 280.638 140.333 280.591 140.661L280.434 142.398L279.812 142.797L279.864 141.061C279.628 141.061 279.444 140.913 279.383 140.531C279.338 140.3 279.359 140.062 279.445 139.842C279.53 139.623 279.675 139.431 279.864 139.29C280.197 138.995 280.513 139.186 280.591 139.672Z" fill="#407BFF"/>
    <path d="M281.949 145.766L282.159 144.559C282.691 144.624 283.228 144.491 283.666 144.186C284.27 143.795 284.481 143.413 284.419 143.031C284.253 141.981 281.888 144.594 281.537 142.398C281.487 141.825 281.603 141.251 281.872 140.742C282.14 140.232 282.55 139.81 283.053 139.524C283.52 139.192 284.081 139.016 284.656 139.021L284.446 140.227C284.005 140.193 283.567 140.316 283.21 140.575C282.632 140.948 282.405 141.382 282.457 141.738C282.641 142.849 284.997 140.236 285.348 142.389C285.393 142.969 285.268 143.549 284.988 144.061C284.709 144.572 284.286 144.992 283.771 145.271C283.25 145.662 282.598 145.84 281.949 145.766Z" fill="#407BFF"/>
    <path d="M271.035 157.851L269.589 168.65L268.38 169.432L264 162.356L265.332 161.488L268.661 166.966L269.765 158.641L271.035 157.851Z" fill="#407BFF"/>
    <path d="M271.919 162.218C271.707 160.923 271.858 159.595 272.355 158.38C272.853 157.164 273.678 156.107 274.74 155.325C276.798 153.996 278.629 154.969 279.058 157.616C279.279 158.92 279.132 160.259 278.633 161.485C278.133 162.711 277.301 163.776 276.229 164.562C274.188 165.838 272.348 164.857 271.919 162.218ZM277.814 158.415C277.525 156.592 276.316 155.915 274.976 156.774C274.274 157.31 273.733 158.027 273.412 158.845C273.091 159.664 273.002 160.554 273.154 161.419C273.452 163.242 274.661 163.919 275.992 163.06C276.698 162.527 277.242 161.811 277.563 160.992C277.885 160.172 277.972 159.281 277.814 158.415Z" fill="#407BFF"/>
    <path d="M281.116 152.911L278.918 154.326L278.699 152.92L284.323 149.3L284.55 150.706L282.352 152.121L283.569 159.648L282.343 160.438L281.116 152.911Z" fill="#407BFF"/>
    <path d="M291.445 153.077L291.673 154.466L286.697 157.669L285.251 148.736L290.087 145.619L290.315 147.008L286.706 149.335L287.082 151.661L290.28 149.595L290.507 150.958L287.328 152.99L287.731 155.455L291.445 153.077Z" fill="#407BFF"/>
    <path d="M360.649 190.337V315.134H356.594V194.443H320.353V315.134H316.298V194.443H301.081V315.134H297.026V194.443H260.374V315.134H256.309V190.337H360.649Z" fill="#263238"/>
    <path opacity="0.3" d="M299.093 190.337V315.134H297.026V194.443H258.438V315.134H256.309V190.337H299.093Z" fill="white"/>
    <path opacity="0.3" d="M318.365 194.443H316.297V315.134H318.365V194.443Z" fill="white"/>
    <path opacity="0.3" d="M358.625 194.443H356.558V315.134H358.625V194.443Z" fill="white"/>
    <path d="M123.401 192.265H183.329V109.269L123.401 109.269V192.265Z" fill="#407BFF"/>
    <path d="M82.7383 192.264H123.393V109.269L82.7383 123.749V192.264Z" fill="#407BFF"/>
    <path opacity="0.2" d="M82.7383 192.264H123.393V109.269L82.7383 123.749V192.264Z" fill="white"/>
    <path d="M82.738 192.272H183.32V181.099H82.738V192.272Z" fill="#263238"/>
    <path opacity="0.3" d="M82.738 192.272H183.32V181.099H82.738V192.272Z" fill="white"/>
    <path d="M123.218 171.134L147.054 177.124L131.847 187.976L107.923 181.612L123.218 171.134Z" fill="#407BFF"/>
    <path opacity="0.8" d="M123.218 171.134L147.054 177.124L131.847 187.976L107.923 181.612L123.218 171.134Z" fill="white"/>
    <path d="M107.923 181.613L123.218 171.134L146.108 167.514L127.668 180.249L107.923 181.613Z" fill="white"/>
    <path d="M142.666 192.264H183.321V109.269L142.666 123.749V192.264Z" fill="#407BFF"/>
    <path opacity="0.6" d="M142.666 192.264H183.321V109.269L142.666 123.749V192.264Z" fill="white"/>
    <path opacity="0.5" d="M165.774 125.764L148.148 163.754L180.263 172.983L165.774 125.764Z" fill="white"/>
    <path d="M153.378 147.936L154.368 147.294L155.349 153.371L158.144 151.574L158.328 152.703L154.543 155.142L153.378 147.936Z" fill="#407BFF"/>
    <path d="M162.428 147.477L159.23 149.534C159.476 150.263 160.054 150.463 160.763 150.003C161.233 149.685 161.587 149.225 161.771 148.692L162.41 149.161C162.15 149.96 161.621 150.646 160.912 151.105C159.546 151.974 158.468 151.375 158.205 149.742C158.073 148.964 158.157 148.165 158.449 147.431C158.741 146.697 159.229 146.055 159.861 145.575C161.052 144.811 162.104 145.376 162.375 147.086C162.393 147.19 162.41 147.355 162.428 147.477ZM159.081 148.735L161.394 147.242C161.193 146.504 160.649 146.244 160.027 146.652C159.705 146.891 159.449 147.208 159.283 147.573C159.118 147.937 159.048 148.337 159.081 148.735Z" fill="#407BFF"/>
    <path d="M166.133 147.337C165.933 147.731 165.631 148.063 165.257 148.301C164.381 148.874 163.75 148.562 163.505 147.355L163.076 144.75L162.41 145.184L162.244 144.16L162.909 143.726L162.708 142.467L163.663 141.859L163.864 143.11L164.959 142.406L165.126 143.431L164.031 144.134L164.451 146.738C164.539 147.277 164.784 147.433 165.152 147.199C165.368 147.056 165.541 146.858 165.651 146.626L166.133 147.337Z" fill="#407BFF"/>
    <path d="M166.79 139.672C166.841 140 166.841 140.333 166.79 140.661L166.632 142.398L166.01 142.797L166.063 141.061C165.835 141.061 165.642 140.913 165.581 140.531C165.538 140.3 165.561 140.062 165.646 139.843C165.731 139.624 165.875 139.433 166.063 139.29C166.44 138.995 166.711 139.186 166.79 139.672Z" fill="#407BFF"/>
    <path d="M168.192 145.766L168.402 144.559C168.934 144.626 169.472 144.493 169.909 144.186C170.514 143.795 170.733 143.413 170.662 143.031C170.496 141.981 168.14 144.594 167.78 142.398C167.73 141.825 167.846 141.251 168.115 140.742C168.383 140.232 168.793 139.81 169.296 139.524C169.763 139.192 170.324 139.016 170.899 139.021L170.698 140.227C170.257 140.191 169.818 140.314 169.462 140.575C168.875 140.948 168.648 141.382 168.709 141.738C168.884 142.849 171.241 140.236 171.591 142.389C171.628 142.975 171.492 143.558 171.199 144.069C170.907 144.579 170.471 144.994 169.944 145.263C169.443 145.64 168.819 145.819 168.192 145.766Z" fill="#407BFF"/>
    <path d="M157.233 157.851L155.796 168.65L154.579 169.432L150.199 162.356L151.539 161.488L154.859 166.966L155.972 158.641L157.233 157.851Z" fill="#407BFF"/>
    <path d="M158.118 162.218C157.906 160.922 158.058 159.594 158.557 158.378C159.056 157.162 159.883 156.106 160.947 155.325C162.997 153.996 164.828 154.969 165.257 157.616C165.48 158.919 165.335 160.258 164.837 161.484C164.339 162.71 163.508 163.775 162.437 164.562C160.378 165.838 158.556 164.857 158.118 162.218ZM164.022 158.415C163.724 156.592 162.515 155.915 161.184 156.774C160.479 157.308 159.936 158.024 159.614 158.843C159.293 159.662 159.206 160.554 159.362 161.419C159.66 163.242 160.86 163.919 162.2 163.06C162.904 162.526 163.447 161.81 163.768 160.991C164.09 160.172 164.177 159.281 164.022 158.415Z" fill="#407BFF"/>
    <path d="M167.316 152.911L165.117 154.326L164.889 152.92L170.513 149.3L170.741 150.706L168.542 152.121L169.76 159.648L168.533 160.438L167.316 152.911Z" fill="#407BFF"/>
    <path d="M177.644 153.077L177.872 154.466L172.896 157.669L171.451 148.736L176.295 145.619L176.514 147.008L172.905 149.335L173.282 151.661L176.488 149.595L176.707 150.958L173.509 153.025L173.903 155.49L177.644 153.077Z" fill="#407BFF"/>
    <path d="M81.1084 190.337V315.134H85.1643V194.443H121.404V315.134H125.46V194.443H140.676V315.134H144.732V194.443H181.384V315.134H185.449V190.337H81.1084Z" fill="#263238"/>
    <path opacity="0.3" d="M142.666 190.337V315.134H144.733V194.443H183.321V315.134H185.449V190.337H142.666Z" fill="white"/>
    <path opacity="0.3" d="M125.461 194.443H123.394V315.134H125.461V194.443Z" fill="white"/>
    <path opacity="0.3" d="M85.208 194.443H83.1406V315.134H85.208V194.443Z" fill="white"/>
    <path d="M351.53 222.745L350.374 226.218L348.99 230.342L346.546 237.634L346.116 238.954L343.585 246.507L339.301 259.381C338.705 279.071 327.826 305.715 327.826 305.715L323.954 304.673C325.373 285.365 329.21 262.064 332.442 244.597C332.95 241.853 333.441 239.266 333.914 236.853L334.571 233.545C334.909 231.809 335.231 230.205 335.534 228.735C336.139 225.749 336.647 223.327 337.015 221.617C337.409 219.75 337.637 218.726 337.637 218.726L351.53 222.745Z" fill="#E4897B"/>
    <path d="M371.353 219.056L370.477 224.985L369.295 232.799L369.163 233.667L368.909 235.403L368.033 241.333L365.589 257.255C368.384 276.753 362.243 304.847 362.243 304.847L358.248 304.474C356.163 283.534 356.085 257.454 356.374 239.362C356.418 236.558 356.47 233.927 356.523 231.549C356.518 231.476 356.518 231.404 356.523 231.331V231.201C356.636 226.487 356.768 222.737 356.855 220.367C356.934 218.5 356.969 217.484 356.969 217.484L371.353 219.056Z" fill="#E4897B"/>
    <path opacity="0.2" d="M337.637 218.752L351.53 222.745L350.374 226.218L348.99 230.342L335.508 228.762C336.113 225.775 336.621 223.353 336.989 221.643C337.409 219.776 337.637 218.752 337.637 218.752Z" fill="black"/>
    <path opacity="0.2" d="M371.353 219.056L370.477 224.985L369.295 232.799L356.531 231.271V231.141C356.645 226.427 356.777 222.676 356.864 220.306C356.943 218.44 356.978 217.424 356.978 217.424L371.353 219.056Z" fill="black"/>
    <path d="M352.905 158.711C352.905 158.711 347.299 166.689 345.17 168.078C343.041 169.467 327.869 168.347 327.869 168.347L327.098 171.629C327.098 171.629 342.673 174.451 345.95 172.714C349.226 170.978 357.408 161.993 357.408 161.993L352.905 158.711Z" fill="#E4897B"/>
    <path opacity="0.2" d="M352.905 158.711C352.905 158.711 347.299 166.689 345.17 168.078C343.041 169.467 327.869 168.347 327.869 168.347L327.098 171.629C327.098 171.629 342.673 174.451 345.95 172.714C349.226 170.978 357.408 161.993 357.408 161.993L352.905 158.711Z" fill="black"/>
    <path d="M332.004 167.887L332.521 173.278C332.521 173.278 352.266 175.692 354.421 174.537C356.576 173.383 358.372 162.774 358.372 162.774L349.524 162.01C349.524 162.01 342.349 167.262 341.544 167.887C340.738 168.512 332.004 167.887 332.004 167.887Z" fill="#263238"/>
    <path opacity="0.3" d="M332.004 167.887L332.521 173.278C332.521 173.278 352.266 175.692 354.421 174.537C356.576 173.383 358.372 162.774 358.372 162.774L349.524 162.01C349.524 162.01 342.349 167.262 341.544 167.887C340.738 168.512 332.004 167.887 332.004 167.887Z" fill="white"/>
    <path d="M327.869 168.348C327.004 167.411 325.996 166.614 324.882 165.986C323.653 165.482 322.347 165.188 321.019 165.118L320.388 169.363C321.366 170.126 322.413 170.798 323.516 171.369C324.687 171.654 325.898 171.739 327.098 171.621L327.869 168.348Z" fill="#E4897B"/>
    <path opacity="0.2" d="M327.869 168.348C327.004 167.411 325.996 166.614 324.882 165.986C323.653 165.482 322.347 165.188 321.019 165.118L320.388 169.363C321.366 170.126 322.413 170.798 323.516 171.369C324.687 171.654 325.898 171.739 327.098 171.621L327.869 168.348Z" fill="black"/>
    <path d="M333.756 139.524C333.726 139.525 333.696 139.519 333.669 139.507C333.642 139.495 333.618 139.477 333.598 139.454C333.302 139.208 332.954 139.03 332.579 138.936C332.205 138.841 331.813 138.831 331.434 138.908C331.406 138.914 331.377 138.915 331.348 138.91C331.32 138.905 331.293 138.895 331.268 138.879C331.244 138.864 331.223 138.844 331.206 138.821C331.19 138.797 331.178 138.771 331.172 138.743C331.161 138.685 331.174 138.626 331.206 138.577C331.239 138.529 331.289 138.495 331.347 138.482C331.798 138.391 332.264 138.403 332.709 138.519C333.154 138.635 333.566 138.851 333.913 139.151C333.954 139.193 333.977 139.249 333.977 139.307C333.977 139.365 333.954 139.421 333.913 139.463C333.87 139.501 333.814 139.523 333.756 139.524Z" fill="#263238"/>
    <path d="M332.669 142.068C332.311 142.886 331.855 143.658 331.312 144.369C331.484 144.573 331.711 144.726 331.966 144.81C332.221 144.895 332.495 144.907 332.757 144.846L332.669 142.068Z" fill="#DE5753"/>
    <path d="M331.636 140.705C331.636 141.131 331.916 141.469 332.206 141.452C332.495 141.435 332.714 141.07 332.687 140.636C332.661 140.202 332.407 139.872 332.109 139.889C331.811 139.907 331.61 140.271 331.636 140.705Z" fill="#263238"/>
    <path d="M332.231 139.897L331.268 139.585C331.268 139.585 331.784 140.349 332.231 139.897Z" fill="#263238"/>
    <path d="M344.609 148.735C344.563 148.79 344.51 148.84 344.452 148.883C343.721 149.624 342.848 150.215 341.885 150.619C339.064 151.687 337.023 151.565 335.543 150.437C333.449 148.7 332.512 145.314 332.188 141.095C332 139.42 332.083 137.726 332.433 136.077V135.999C332.446 135.937 332.464 135.876 332.486 135.817C332.718 134.882 333.182 134.019 333.837 133.308C334.492 132.597 335.316 132.06 336.235 131.745C337.03 131.452 337.856 131.245 338.696 131.129C346.896 129.905 350.277 143.231 344.609 148.735Z" fill="#E4897B"/>
    <path opacity="0.2" d="M344.452 148.9C343.707 149.597 342.828 150.141 341.868 150.497C339.047 151.565 336.989 151.365 335.508 150.193C337.31 150.386 339.126 149.986 340.677 149.056C341.253 148.748 341.892 148.575 342.546 148.548C343.2 148.521 343.852 148.641 344.452 148.9Z" fill="black"/>
    <path d="M341.64 128.56C341.64 128.56 335.937 127.926 333.195 130.539C329.998 133.586 329.016 136.425 333.799 139.967C333.799 139.967 342.638 135.731 345.809 135.948C347.656 136.062 349.49 136.327 351.293 136.738C351.083 130.6 344.53 126.901 341.64 128.56Z" fill="#263238"/>
    <path d="M340.439 150.94C340.929 151.158 341.365 151.479 341.716 151.881C342.066 152.284 342.323 152.758 342.469 153.269C342.614 153.781 342.644 154.319 342.557 154.843C342.47 155.368 342.267 155.867 341.964 156.306L353.904 152.998C353.904 152.998 348.262 150.558 347.772 146.626C347.772 146.626 341.517 146.131 340.439 150.94Z" fill="#E4897B"/>
    <path d="M332.416 136.016C332.575 137.726 333.243 139.351 334.335 140.684C335.426 142.018 336.892 143.001 338.548 143.509C338.548 143.509 341.719 149.134 345.196 148.718C349.927 148.188 353.159 140.965 350.584 134.41C347.272 125.946 333.756 127.031 332.416 136.016Z" fill="#263238"/>
    <path d="M335.569 142.251C335.447 141.382 335.963 139.759 337.391 139.768C338.819 139.776 340.168 143.24 336.717 144.49C336.217 144.673 335.823 144.108 335.569 142.251Z" fill="#E4897B"/>
    <path d="M370.793 181.413C370.793 181.413 379.412 201.381 371.353 230.308L334.316 227.026C339.151 203.542 345.704 190.711 345.704 190.711L346.895 178.896L370.793 181.413Z" fill="#407BFF"/>
    <path d="M341.474 153.745C342.452 152.282 343.763 151.066 345.301 150.196C346.839 149.326 348.561 148.826 350.33 148.735L353.37 151.921L341.474 153.745Z" fill="#407BFF"/>
    <path d="M365.467 185.945L352.222 187.317V184.33L365.081 183.071C365.178 183.801 365.335 184.99 365.467 185.945Z" fill="#263238"/>
    <path d="M351.188 184.435V187.421L345.704 187.985V184.973L351.188 184.435Z" fill="#263238"/>
    <path d="M366.132 182.967L371.695 182.42L372.396 185.224L366.649 185.814L366.132 182.967Z" fill="#263238"/>
    <path d="M309.762 179.277C308.711 178.548 307.553 177.986 306.328 177.61C305.015 177.387 303.673 177.387 302.36 177.61L302.675 181.89C303.802 182.423 304.975 182.856 306.179 183.183C307.386 183.206 308.589 183.027 309.736 182.654L309.762 179.277Z" fill="#E4897B"/>
    <path d="M370.793 181.413L346.37 184.121L334.229 157.009C334.229 157.009 342.682 149.786 358.337 152.121C358.337 152.121 363.943 154.595 370.793 181.413Z" fill="#263238"/>
    <path opacity="0.5" d="M370.784 181.412L346.37 184.121L340.598 171.237L338.145 165.776L334.229 157.008C334.229 157.008 342.674 149.794 358.337 152.12C358.337 152.12 363.934 154.595 370.784 181.412Z" fill="white"/>
    <path opacity="0.2" d="M340.597 171.238L338.145 165.777C338.377 165.301 338.691 164.87 339.073 164.501C339.893 165.397 340.465 166.489 340.732 167.67C340.999 168.851 340.953 170.08 340.597 171.238Z" fill="black"/>
    <path d="M332.091 164.501C332.091 164.501 328.368 173.495 326.59 175.301C324.812 177.107 309.762 179.277 309.762 179.277L309.718 182.645C309.718 182.645 325.548 182.064 328.368 179.668C331.189 177.272 337.26 166.732 337.26 166.732L332.091 164.501Z" fill="#E4897B"/>
    <path d="M334.228 157.009C332.135 158.893 327.22 174.901 326.59 175.301C325.959 175.7 312.574 178.843 312.574 178.843C312.574 178.843 314.089 183.461 314.08 183.184C314.072 182.906 327.588 182.151 329.226 181.534C330.865 180.918 339.738 166.958 339.738 166.958C339.179 164.552 338.332 162.22 337.216 160.013C335.683 157.321 334.228 157.009 334.228 157.009Z" fill="#263238"/>
    <path opacity="0.5" d="M334.228 157.009C332.135 158.893 327.22 174.901 326.59 175.301C325.959 175.7 312.574 178.843 312.574 178.843C312.574 178.843 314.089 183.461 314.08 183.184C314.072 182.906 327.588 182.151 329.226 181.534C330.865 180.918 339.738 166.958 339.738 166.958C339.179 164.552 338.332 162.22 337.216 160.013C335.683 157.321 334.228 157.009 334.228 157.009Z" fill="white"/>
    <path d="M311.803 178.895L313.03 178.148L314.913 183.531H313.03L311.803 178.895Z" fill="#407BFF"/>
    <path d="M317.646 313.945C318.328 313.398 319.106 312.98 319.941 312.713C319.941 312.713 322.438 310.256 323.638 302.868L326.906 302C327.459 301.865 328.042 301.903 328.573 302.108C329.104 302.313 329.559 302.676 329.875 303.146C329.963 303.278 330.033 303.421 330.086 303.571C330.251 304.365 330.366 305.168 330.427 305.976C330.612 308.675 330.63 311.383 330.48 314.084H329.884L329.656 308.997C329.569 307.261 328.228 309.292 327.852 311.15C327.475 313.008 326.652 314.996 322.832 315.091C318.365 315.204 316.516 315.031 317.646 313.945Z" fill="#263238"/>
    <path d="M329.989 303.267C330.18 301.939 330.472 300.627 330.865 299.343H322.981C322.981 299.343 323.857 302.755 323.139 305.324C326.818 304.335 329.989 303.267 329.989 303.267Z" fill="#263238"/>
    <path d="M351.276 313.945C351.958 313.398 352.736 312.98 353.571 312.713C353.571 312.713 356.067 310.256 357.268 302.868L360.535 302C361.089 301.865 361.671 301.903 362.202 302.108C362.734 302.313 363.188 302.676 363.505 303.146C363.592 303.278 363.663 303.421 363.715 303.571C363.879 304.365 363.996 305.168 364.065 305.976C364.244 308.675 364.259 311.383 364.109 314.084H363.54L363.312 308.997C363.224 307.261 361.884 309.292 361.507 311.15C361.131 313.008 360.307 314.996 356.488 315.091C352.038 315.204 350.181 315.031 351.276 313.945Z" fill="#263238"/>
    <path d="M363.654 303.267C363.844 301.939 364.137 300.627 364.53 299.343H356.646C356.646 299.343 357.521 302.755 356.794 305.324C360.491 304.335 363.654 303.267 363.654 303.267Z" fill="#263238"/>
    <path d="M343.199 129.202C343.199 129.202 345.976 121.432 353.369 124.522C360.763 127.613 355.025 135.609 357.425 139.967C359.825 144.325 356.435 148.336 354.552 147.199C354.816 147.172 355.07 147.086 355.296 146.947C355.521 146.809 355.712 146.621 355.854 146.399C355.996 146.176 356.085 145.925 356.114 145.663C356.143 145.402 356.112 145.137 356.023 144.889C355.445 142.841 352.134 143.518 350.767 137.571C349.401 131.624 347.185 134.098 347.185 134.098L343.199 129.202Z" fill="#263238"/>
    <path d="M114.642 155.749C112.592 158.519 98.0859 155.749 98.0859 155.749V151.964L109.851 151.053L114.642 155.749Z" fill="#263238"/>
    <path opacity="0.2" d="M114.642 155.749C112.592 158.519 98.0859 155.749 98.0859 155.749V151.964L109.851 151.053L114.642 155.749Z" fill="black"/>
    <path d="M72.9627 135.426C70.0369 136.91 74.5045 151.191 78.9721 155.949C83.4397 160.706 80.6628 144.993 80.6628 144.993L72.9627 135.426Z" fill="#263238"/>
    <path opacity="0.2" d="M72.9627 135.426C70.0369 136.91 74.5045 151.191 78.9721 155.949C83.4397 160.706 80.6628 144.993 80.6628 144.993L72.9627 135.426Z" fill="black"/>
    <path d="M95.8872 132.544L95.9398 136.815L92.646 136.416V132.544C92.646 132.544 92.2868 131.962 91.8926 131.233C91.5455 130.629 91.2524 129.996 91.0166 129.341C90.6137 128.117 94.7922 124.514 94.7922 124.514C94.7922 124.514 95.055 124.757 95.4229 125.13C96.2989 125.998 97.8932 127.578 98.0509 128.169C98.34 129.002 95.8872 132.544 95.8872 132.544Z" fill="#9F5B53"/>
    <path opacity="0.2" d="M95.484 125.13C95.0285 126.996 93.9861 129.983 91.98 131.207C91.6329 130.602 91.3398 129.969 91.104 129.314C90.7011 128.09 94.8796 124.487 94.8796 124.487C94.8796 124.487 95.0723 124.756 95.484 125.13Z" fill="black"/>
    <path d="M103.693 309.621L109.746 310.255L110.053 306.773L110.885 297.31L104.823 296.668L103.903 307.129L103.693 309.621Z" fill="#9F5B53"/>
    <path d="M73.4609 308.858H79.3301L79.3827 307.547L79.3915 307.382L79.6893 298.943L79.6981 298.77L79.8119 295.54H73.9427L73.4609 308.858Z" fill="#9F5B53"/>
    <path opacity="0.2" d="M104.822 296.668L103.902 307.129L110.052 306.773L110.884 297.31L104.822 296.668Z" fill="black"/>
    <path opacity="0.2" d="M73.4961 308.12H73.5049L79.3828 307.382H79.3916L79.6982 299.238H79.6894L73.8027 299.707L73.5049 307.868L73.4961 308.12Z" fill="black"/>
    <path d="M80.1448 308.476H73.0142C72.8973 308.475 72.7838 308.515 72.6929 308.587C72.6019 308.66 72.5391 308.762 72.5149 308.875L71.3586 314.084C71.3141 314.306 71.3588 314.536 71.4832 314.726C71.6075 314.916 71.8017 315.05 72.0243 315.1C72.0882 315.109 72.1531 315.109 72.217 315.1C74.5209 315.1 76.2028 314.926 79.1024 314.926C80.8544 314.926 86.2681 315.108 88.7384 315.108C91.2087 315.108 91.5241 312.695 90.4904 312.504C85.9702 311.523 82.6064 310.168 81.1172 308.884C80.8576 308.629 80.5097 308.483 80.1448 308.476Z" fill="#263238"/>
    <path d="M110.377 308.327H103.246C103.129 308.328 103.017 308.368 102.926 308.441C102.835 308.513 102.772 308.614 102.747 308.727L101.59 313.935C101.543 314.159 101.587 314.391 101.711 314.583C101.836 314.775 102.032 314.91 102.256 314.96H102.449C104.761 314.96 106.435 314.778 109.334 314.778C111.086 314.778 116.5 314.969 118.97 314.969C121.44 314.969 121.756 312.555 120.722 312.364C116.193 311.392 112.786 310.037 111.34 308.744C111.085 308.488 110.74 308.339 110.377 308.327Z" fill="#263238"/>
    <path d="M111.435 305.87H102.824C102.824 305.87 103.525 232.416 94.2133 207.612C93.5563 215.808 92.8205 224.324 92.0934 231.409C91.6379 235.801 91.2174 239.569 90.7706 242.443C88.055 260.943 81.2135 306.617 81.2135 306.617H72.7075C72.7075 306.617 73.7149 262.853 74.7311 244.665C75.8436 224.932 76.3166 181.542 76.3604 177.817H107.52C110.481 193.409 118.084 255.578 111.435 305.87Z" fill="#407BFF"/>
    <path opacity="0.7" d="M111.435 305.87H102.824C102.824 305.87 103.525 232.416 94.2133 207.612C93.5563 215.808 92.8205 224.324 92.0934 231.409C91.6379 235.801 91.2174 239.569 90.7706 242.443C88.055 260.943 81.2135 306.617 81.2135 306.617H72.7075C72.7075 306.617 73.7149 262.853 74.7311 244.665C75.8436 224.932 76.3166 181.542 76.3604 177.817H107.52C110.481 193.409 118.084 255.578 111.435 305.87Z" fill="white"/>
    <path opacity="0.2" d="M94.2141 207.605C93.5571 215.809 92.8213 224.334 92.0942 231.419C91.0342 221.183 89.7377 213.891 89.7377 213.891C89.7377 213.891 88.5201 212.901 85.1738 207.605C81.8275 202.309 85.1738 192.438 85.1738 192.438C85.0687 201.615 94.2141 207.605 94.2141 207.605Z" fill="black"/>
    <path d="M112.4 303.492L111.979 305.897H101.809V303.683L112.4 303.492Z" fill="#407BFF"/>
    <path d="M82.1946 304.421L81.2135 306.643H72.6812L72.1206 304.421H82.1946Z" fill="#407BFF"/>
    <path d="M76.1768 175.482V178.252H107.59L107.222 175.092L76.1768 175.482Z" fill="black"/>
    <path d="M86.7239 174.597H85.7778V178.972H86.7239V174.597Z" fill="#407BFF"/>
    <path d="M102.289 174.574L101.345 174.637L101.638 179.003L102.582 178.94L102.289 174.574Z" fill="#407BFF"/>
    <path opacity="0.7" d="M86.7239 174.597H85.7778V178.972H86.7239V174.597Z" fill="white"/>
    <path opacity="0.7" d="M102.289 174.574L101.345 174.637L101.638 179.003L102.582 178.94L102.289 174.574Z" fill="white"/>
    <path d="M96.9732 117.256C96.9732 117.716 96.7892 118.124 96.4738 118.124C96.1585 118.124 95.8869 117.785 95.8431 117.325C95.7993 116.865 96.0358 116.457 96.3424 116.457C96.649 116.457 96.9381 116.796 96.9732 117.256Z" fill="#2E353A"/>
    <path d="M94.6084 115.875C94.5612 115.873 94.5155 115.858 94.477 115.831C94.4561 115.812 94.4394 115.788 94.4279 115.762C94.4165 115.736 94.4106 115.708 94.4106 115.679C94.4106 115.651 94.4165 115.623 94.4279 115.596C94.4394 115.57 94.4561 115.547 94.477 115.527C94.8003 115.157 95.2062 114.868 95.6624 114.681C96.1187 114.494 96.6126 114.415 97.105 114.451C97.1338 114.453 97.1619 114.461 97.1876 114.474C97.2133 114.487 97.2362 114.505 97.255 114.526C97.2737 114.548 97.2879 114.573 97.2967 114.601C97.3056 114.628 97.3089 114.657 97.3065 114.685C97.3043 114.714 97.2964 114.742 97.2833 114.767C97.2702 114.793 97.2521 114.815 97.2301 114.834C97.2082 114.852 97.1827 114.866 97.1552 114.875C97.1277 114.884 97.0987 114.887 97.07 114.885C96.6571 114.854 96.2425 114.916 95.8573 115.067C95.472 115.217 95.126 115.452 94.8449 115.753C94.8215 115.794 94.7867 115.827 94.7448 115.848C94.7028 115.87 94.6555 115.879 94.6084 115.875Z" fill="#2E353A"/>
    <path d="M95.8428 118.141C96.4855 119.163 97.2469 120.107 98.1116 120.953C97.9173 121.261 97.6408 121.508 97.313 121.669C96.9852 121.83 96.6188 121.898 96.2545 121.865L95.8428 118.141Z" fill="#A24E3F"/>
    <path d="M96.2024 123.801C96.1375 124.081 96.0526 124.357 95.9483 124.626C95.3986 126.167 94.387 127.506 93.0488 128.463C92.7096 128.706 92.3523 128.924 91.9801 129.114C91.0074 129.626 89.9319 129.916 88.8318 129.964C87.7317 130.012 86.6346 129.817 85.6203 129.392C84.719 128.995 83.9039 128.429 83.2201 127.725C80.2855 124.782 80.3555 121.387 80.0314 115.632C79.9262 114.398 80.1184 113.157 80.5921 112.011C81.4035 110.082 82.9541 108.551 84.9035 107.753C86.8528 106.956 89.0419 106.957 90.9902 107.757C96.6842 110.058 97.4638 118.627 96.2024 123.801Z" fill="#9F5B53"/>
    <path opacity="0.2" d="M93.0486 128.464C92.7094 128.707 92.3521 128.925 91.9799 129.115C91.0072 129.626 89.9317 129.917 88.8316 129.965C87.7315 130.013 86.6344 129.817 85.6201 129.393C85.8822 128.7 86.2325 128.044 86.6626 127.439C88.8463 127.166 91.0634 127.521 93.0486 128.464Z" fill="black"/>
    <path d="M81.3628 135.921C84.2186 138.526 91.2266 137.545 91.2266 137.545C91.2266 137.545 95.6066 136.364 94.7306 135.01C92.1551 134.584 90.9024 133.395 90.3506 131.867C90.069 130.921 89.9826 129.929 90.0965 128.95C90.1364 128.405 90.2066 127.863 90.3068 127.326L81.6431 120.954C82.7732 125.165 84.166 132.883 81.3628 135.921Z" fill="#9F5B53"/>
    <path d="M89.352 105.275C89.352 105.275 90.885 104.346 93.513 106.794C95.7205 108.86 93.513 110.519 94.827 113.166C96.141 115.814 94.3627 118.419 94.3627 118.419C94.3627 118.419 93.0925 121.136 90.8587 120.971C90.8587 120.971 89.0454 123.142 89.3345 125.381C89.6235 127.621 86.3736 129.401 81.941 129.34C77.5085 129.279 79.313 126.545 79.313 126.545C78.0183 125.08 76.9711 123.418 76.212 121.622C75.3162 119.441 74.8867 117.1 74.9505 114.746C74.9099 113.524 75.1151 112.306 75.5542 111.162C75.9934 110.019 76.6577 108.974 77.5085 108.088C80.4693 104.789 87.5124 103.131 89.352 105.275Z" fill="#263238"/>
    <path d="M89.7463 119.713C89.8519 120.263 90.0806 120.782 90.4156 121.233C90.7507 121.684 91.1835 122.054 91.6823 122.317C92.8649 122.812 93.6358 121.162 93.4343 119.435C93.2679 117.898 92.4707 115.736 91.2005 116.023C89.9303 116.309 89.3521 118.167 89.7463 119.713Z" fill="#9F5B53"/>
    <path d="M80.6626 135.383L81.9416 132.11C81.9416 132.11 90.5702 130.46 93.496 134.714C96.4218 138.968 80.6626 135.383 80.6626 135.383Z" fill="#407BFF"/>
    <path opacity="0.6" d="M80.6626 135.383L81.9416 132.11C81.9416 132.11 90.5702 130.46 93.496 134.714C96.4218 138.968 80.6626 135.383 80.6626 135.383Z" fill="white"/>
    <path d="M75.5899 176.021C75.5899 176.021 76.7988 165.308 75.0118 149.021C74.5475 144.828 73.8905 140.27 72.9707 135.426C72.9707 135.426 89.9038 132.466 101.721 135.426C101.721 135.426 102.212 137.405 102.869 140.783C102.982 141.33 103.096 141.903 103.219 142.519C103.534 144.194 103.876 146.13 104.226 148.257L104.279 148.587C104.656 150.879 105.155 153.51 105.637 156.357C106.868 162.724 107.629 169.171 107.914 175.648L75.5899 176.021Z" fill="#263238"/>
    <path opacity="0.2" d="M105.646 156.365C100.066 151.234 100.688 140.738 100.688 140.738L103.219 142.475C103.535 144.15 103.876 146.086 104.227 148.213L104.279 148.543C104.665 150.887 105.12 153.518 105.646 156.365Z" fill="black"/>
    <path d="M101.721 135.426C106.101 137.249 115.071 150.853 115.229 153.657C115.387 156.461 113.258 157.538 109.237 155.098C105.216 152.659 101.301 143.812 100.74 141.156C100.179 138.499 101.721 135.426 101.721 135.426Z" fill="#263238"/>
</svg>
